<?xml version="1.0" encoding="utf-8" standalone="no"?>
<!DOCTYPE svg PUBLIC "-//W3C//DTD SVG 1.1//EN"
  "http://www.w3.org/Graphics/SVG/1.1/DTD/svg11.dtd">
<!-- Created with matplotlib (https://matplotlib.org/) -->
<svg height="483.91pt" version="1.1" viewBox="0 0 808.14 483.91" width="808.14pt" xmlns="http://www.w3.org/2000/svg" xmlns:xlink="http://www.w3.org/1999/xlink">
 <defs>
  <style type="text/css">
*{stroke-linecap:butt;stroke-linejoin:round;}
  </style>
 </defs>
 <g id="figure_1">
  <g id="patch_1">
   <path d="M 0 483.91 
L 808.14 483.91 
L 808.14 0 
L 0 0 
z
" style="fill:none;"/>
  </g>
  <g id="axes_1">
   <g id="patch_2">
    <path d="M 131.34 408.275 
L 800.94 408.275 
L 800.94 75.635 
L 131.34 75.635 
z
" style="fill:none;"/>
   </g>
   <g id="matplotlib.axis_1">
    <g id="xtick_1">
     <g id="line2d_1">
      <path clip-path="url(#pe0bcff732a)" d="M 161.776364 408.275 
L 161.776364 75.635 
" style="fill:none;stroke:#b0b0b0;stroke-linecap:square;stroke-width:0.8;"/>
     </g>
     <g id="line2d_2">
      <defs>
       <path d="M 0 0 
L 0 3.5 
" id="mcf67cd36d2" style="stroke:#000000;stroke-width:0.8;"/>
      </defs>
      <g>
       <use style="stroke:#000000;stroke-width:0.8;" x="161.776364" xlink:href="#mcf67cd36d2" y="408.275"/>
      </g>
     </g>
     <g id="text_1">
      <!-- $\mathdefault{2^{0}}$ -->
      <defs>
       <path d="M 56.34375 0 
L 7.125 0 
L 7.125 9.515625 
Q 14.9375 16.265625 24.671875 25.1875 
Q 34.421875 34.125 39.15625 40.90625 
Q 43.890625 47.703125 43.890625 54.5 
Q 43.890625 60.5 39.90625 63.859375 
Q 35.9375 67.234375 29.109375 67.234375 
Q 19.09375 67.234375 9.421875 60.890625 
L 8.9375 60.890625 
L 8.9375 70.40625 
Q 18.796875 75.09375 29.34375 75.09375 
Q 40.484375 75.09375 46.875 69.703125 
Q 53.265625 64.3125 53.265625 54.984375 
Q 53.265625 50 51.625 45.453125 
Q 50 40.921875 46.53125 36.625 
Q 43.0625 32.328125 38.234375 27.484375 
Q 33.40625 22.65625 16.015625 7.859375 
L 56.34375 7.859375 
z
" id="Meiryo-50"/>
       <path d="M 31.109375 -1.515625 
Q 18.109375 -1.515625 12 7.765625 
Q 5.90625 17.046875 5.90625 36.71875 
Q 5.90625 56.390625 12.03125 65.71875 
Q 18.171875 75.046875 31.109375 75.046875 
Q 43.953125 75.046875 50.09375 65.6875 
Q 56.25 56.34375 56.25 36.8125 
Q 56.25 17.09375 50.140625 7.78125 
Q 44.046875 -1.515625 31.109375 -1.515625 
z
M 31.109375 67.578125 
Q 22.75 67.578125 18.984375 60.953125 
Q 15.234375 54.34375 15.234375 36.71875 
Q 15.234375 19.234375 18.984375 12.59375 
Q 22.75 5.953125 31.109375 5.953125 
Q 39.453125 5.953125 43.1875 12.59375 
Q 46.921875 19.234375 46.921875 36.8125 
Q 46.921875 54.046875 43.203125 60.8125 
Q 39.5 67.578125 31.109375 67.578125 
z
" id="Meiryo-48"/>
      </defs>
      <g transform="translate(149.126364 432.952656)scale(0.23 -0.23)">
       <use transform="translate(0 0.846875)" xlink:href="#Meiryo-50"/>
       <use transform="translate(63.074883 39.467188)scale(0.7)" xlink:href="#Meiryo-48"/>
      </g>
     </g>
    </g>
    <g id="xtick_2">
     <g id="line2d_3">
      <path clip-path="url(#pe0bcff732a)" d="M 466.14 408.275 
L 466.14 75.635 
" style="fill:none;stroke:#b0b0b0;stroke-linecap:square;stroke-width:0.8;"/>
     </g>
     <g id="line2d_4">
      <g>
       <use style="stroke:#000000;stroke-width:0.8;" x="466.14" xlink:href="#mcf67cd36d2" y="408.275"/>
      </g>
     </g>
     <g id="text_2">
      <!-- $\mathdefault{2^{1}}$ -->
      <defs>
       <path d="M 52.15625 0 
L 12.984375 0 
L 12.984375 6.734375 
L 28.328125 6.734375 
L 28.328125 57.328125 
L 12.984375 57.328125 
L 12.984375 63.28125 
Q 21.96875 63.328125 25.828125 65.84375 
Q 29.6875 68.359375 30.171875 73.828125 
L 37.109375 73.828125 
L 37.109375 6.734375 
L 52.15625 6.734375 
z
" id="Meiryo-49"/>
      </defs>
      <g transform="translate(453.49 432.952656)scale(0.23 -0.23)">
       <use transform="translate(0 0.7)" xlink:href="#Meiryo-50"/>
       <use transform="translate(63.074883 39.320312)scale(0.7)" xlink:href="#Meiryo-49"/>
      </g>
     </g>
    </g>
    <g id="xtick_3">
     <g id="line2d_5">
      <path clip-path="url(#pe0bcff732a)" d="M 644.181314 408.275 
L 644.181314 75.635 
" style="fill:none;stroke:#b0b0b0;stroke-linecap:square;stroke-width:0.8;"/>
     </g>
     <g id="line2d_6">
      <g>
       <use style="stroke:#000000;stroke-width:0.8;" x="644.181314" xlink:href="#mcf67cd36d2" y="408.275"/>
      </g>
     </g>
    </g>
    <g id="xtick_4">
     <g id="line2d_7">
      <path clip-path="url(#pe0bcff732a)" d="M 770.503636 408.275 
L 770.503636 75.635 
" style="fill:none;stroke:#b0b0b0;stroke-linecap:square;stroke-width:0.8;"/>
     </g>
     <g id="line2d_8">
      <g>
       <use style="stroke:#000000;stroke-width:0.8;" x="770.503636" xlink:href="#mcf67cd36d2" y="408.275"/>
      </g>
     </g>
     <g id="text_3">
      <!-- $\mathdefault{2^{2}}$ -->
      <g transform="translate(757.853636 432.952656)scale(0.23 -0.23)">
       <use transform="translate(0 0.814063)" xlink:href="#Meiryo-50"/>
       <use transform="translate(63.074883 39.434375)scale(0.7)" xlink:href="#Meiryo-50"/>
      </g>
     </g>
    </g>
    <g id="text_4">
     <!-- ノード数 -->
     <defs>
      <path d="M 84.1875 75.390625 
Q 80.515625 41.703125 62.296875 21.890625 
Q 44.09375 2.09375 13.484375 -3.421875 
L 10.6875 3.8125 
Q 31.109375 7.671875 45.265625 17.828125 
Q 59.421875 27.984375 66.9375 43.9375 
Q 74.46875 59.90625 75.390625 75.875 
z
" id="Meiryo-12494"/>
      <path d="M 89.9375 32.328125 
L 9.1875 32.328125 
L 9.1875 39.546875 
L 89.9375 39.546875 
z
" id="Meiryo-12540"/>
      <path d="M 92.921875 30.375 
L 87.796875 23.578125 
Q 77.640625 30.375 63.53125 36.90625 
Q 49.421875 43.453125 38.375 46.78125 
L 38.375 -5.03125 
L 29.6875 -5.03125 
L 29.6875 80.46875 
L 38.484375 80.46875 
L 38.484375 54.296875 
Q 67.4375 45.609375 92.921875 30.375 
z
M 88.375 64.40625 
L 82.8125 62.109375 
Q 79.6875 69.484375 75.78125 75.59375 
L 80.90625 77.984375 
Q 84.765625 72.015625 88.375 64.40625 
z
M 74.21875 61.375 
L 68.609375 58.890625 
Q 65.046875 67 61.53125 72.609375 
L 66.796875 75 
Q 71.09375 68.359375 74.21875 61.375 
z
" id="Meiryo-12489"/>
      <path d="M 75.390625 14.546875 
Q 65.671875 1.515625 51.21875 -6.296875 
L 47.75 -1.265625 
Q 62.640625 7.8125 71.34375 21.140625 
Q 63.09375 36.1875 60.453125 49.171875 
Q 58.5 45.265625 56.640625 42.390625 
L 51.03125 45.84375 
Q 55.46875 53.078125 59.25 63.84375 
Q 63.03125 74.609375 64.5 83.15625 
L 72.015625 82.234375 
Q 70.5625 74.421875 67.578125 66.109375 
L 96 66.109375 
L 96 60.40625 
L 90.671875 60.40625 
Q 89.546875 38.421875 79.640625 21.09375 
Q 87.546875 8.734375 97.75 0.34375 
L 92.71875 -5.171875 
Q 82.328125 4.4375 75.390625 14.546875 
z
M 75.34375 28.125 
Q 83.25 43.703125 83.5 60.359375 
L 65.328125 60.203125 
L 64.890625 59.078125 
Q 67.234375 42.828125 75.34375 28.125 
z
M 5.03125 41.15625 
L 2.4375 45.75 
Q 7.125 47.703125 13.9375 52.046875 
Q 20.75 56.390625 25.296875 60.640625 
L 5.71875 60.640625 
L 5.71875 65.71875 
L 27.15625 65.71875 
L 27.15625 81.734375 
L 34.28125 81.734375 
L 34.28125 65.71875 
L 54.5 65.71875 
L 54.5 60.640625 
L 34.71875 60.640625 
Q 41.40625 55.21875 49.90625 51.21875 
L 46.4375 46.34375 
Q 41.5 48.828125 34.28125 54.390625 
L 34.28125 40.71875 
L 27.15625 40.71875 
L 27.15625 54.546875 
Q 16.109375 45.703125 5.03125 41.15625 
z
M 47.953125 67.875 
L 42.328125 69.28125 
L 46.828125 80.21875 
L 52.984375 78.90625 
z
M 13.875 68.0625 
L 9.90625 78.265625 
L 15.828125 80.03125 
L 19.921875 69.828125 
z
M 32.71875 2.203125 
Q 21.53125 -4.6875 6.0625 -6.203125 
L 4.59375 -1.078125 
Q 17.390625 0.78125 26.171875 5.421875 
Q 15.375 10.546875 10.75 11.765625 
Q 9.625 11.765625 9.625 13.53125 
Q 9.625 13.875 9.8125 14.203125 
Q 12.25 18.5625 15.625 25.828125 
L 4.203125 25.828125 
L 4.203125 31.34375 
L 18.0625 31.34375 
Q 20.3125 36.53125 21.140625 38.921875 
L 28.265625 37.796875 
Q 27.390625 35.59375 25.4375 31.34375 
L 55.71875 31.34375 
L 55.71875 25.828125 
L 49.65625 25.828125 
Q 46.875 14.359375 38.28125 6.390625 
Q 43.890625 3.71875 46.921875 2.09375 
L 42.875 -3.421875 
Q 39.40625 -1.21875 32.71875 2.203125 
z
M 32.078125 9.328125 
Q 40.1875 16.21875 42.390625 25.828125 
L 22.90625 25.828125 
Q 19.046875 17.78125 17.671875 15.625 
Q 21.4375 14.359375 32.078125 9.328125 
z
" id="Meiryo-25968"/>
     </defs>
     <g transform="translate(402.14 466.230313)scale(0.32 -0.32)">
      <use xlink:href="#Meiryo-12494"/>
      <use x="100" xlink:href="#Meiryo-12540"/>
      <use x="200" xlink:href="#Meiryo-12489"/>
      <use x="300" xlink:href="#Meiryo-25968"/>
     </g>
    </g>
   </g>
   <g id="matplotlib.axis_2">
    <g id="ytick_1">
     <g id="line2d_9">
      <path clip-path="url(#pe0bcff732a)" d="M 131.34 107.946515 
L 800.94 107.946515 
" style="fill:none;stroke:#b0b0b0;stroke-linecap:square;stroke-width:0.8;"/>
     </g>
     <g id="line2d_10">
      <defs>
       <path d="M 0 0 
L -3.5 0 
" id="m496bddfd54" style="stroke:#000000;stroke-width:0.8;"/>
      </defs>
      <g>
       <use style="stroke:#000000;stroke-width:0.8;" x="131.34" xlink:href="#m496bddfd54" y="107.946515"/>
      </g>
     </g>
     <g id="text_5">
      <!-- $\mathdefault{10^{3}}$ -->
      <defs>
       <path d="M 7.421875 3.078125 
L 7.421875 12.890625 
L 8.203125 12.890625 
Q 18.109375 6.34375 28.71875 6.34375 
Q 36.53125 6.34375 41.234375 10.59375 
Q 45.953125 14.84375 45.953125 22.40625 
Q 45.953125 29.4375 41.84375 32.75 
Q 37.75 36.078125 28.5625 36.078125 
L 24.265625 36.078125 
L 24.265625 43.609375 
L 27.59375 43.609375 
Q 35.5 43.609375 39.984375 46.96875 
Q 44.484375 50.34375 44.484375 56.453125 
Q 44.484375 61.625 40.546875 64.421875 
Q 36.625 67.234375 29.734375 67.234375 
Q 19.828125 67.234375 10.0625 60.84375 
L 9.515625 60.84375 
L 9.515625 70.453125 
Q 19.390625 75.09375 29.984375 75.09375 
Q 41.359375 75.09375 47.578125 70.328125 
Q 53.8125 65.578125 53.8125 57.46875 
Q 53.8125 51.515625 49.65625 46.828125 
Q 45.515625 42.140625 39.265625 40.875 
L 39.265625 40.09375 
Q 55.328125 37.203125 55.328125 21.578125 
Q 55.328125 11.46875 47.953125 4.96875 
Q 40.578125 -1.515625 28.953125 -1.515625 
Q 17.875 -1.515625 7.421875 3.078125 
z
" id="Meiryo-51"/>
      </defs>
      <g transform="translate(84.78 116.785344)scale(0.23 -0.23)">
       <use transform="translate(0 0.814063)" xlink:href="#Meiryo-49"/>
       <use transform="translate(62.109375 0.814063)" xlink:href="#Meiryo-48"/>
       <use transform="translate(125.184258 39.434375)scale(0.7)" xlink:href="#Meiryo-51"/>
      </g>
     </g>
    </g>
    <g id="ytick_2">
     <g id="line2d_11">
      <defs>
       <path d="M 0 0 
L -2 0 
" id="m9a4dc8f84a" style="stroke:#000000;stroke-width:0.6;"/>
      </defs>
      <g>
       <use style="stroke:#000000;stroke-width:0.6;" x="131.34" xlink:href="#m9a4dc8f84a" y="370.575713"/>
      </g>
     </g>
     <g id="text_6">
      <!-- $\mathdefault{3\times10^{2}}$ -->
      <defs>
       <path d="M 67.234375 10.0625 
L 62.3125 5.125 
L 40.1875 27.296875 
L 18.0625 5.125 
L 13.140625 10.0625 
L 35.296875 32.171875 
L 13.140625 54.296875 
L 18.0625 59.234375 
L 40.1875 37.0625 
L 62.3125 59.234375 
L 67.234375 54.296875 
L 45.0625 32.171875 
z
" id="Meiryo-215"/>
      </defs>
      <g transform="translate(44.75 379.414541)scale(0.23 -0.23)">
       <use transform="translate(0 0.814063)" xlink:href="#Meiryo-51"/>
       <use transform="translate(81.298828 0.814063)" xlink:href="#Meiryo-215"/>
       <use transform="translate(180.859375 0.814063)" xlink:href="#Meiryo-49"/>
       <use transform="translate(242.96875 0.814063)" xlink:href="#Meiryo-48"/>
       <use transform="translate(306.043633 39.434375)scale(0.7)" xlink:href="#Meiryo-50"/>
      </g>
     </g>
    </g>
    <g id="ytick_3">
     <g id="line2d_12">
      <g>
       <use style="stroke:#000000;stroke-width:0.6;" x="131.34" xlink:href="#m9a4dc8f84a" y="307.822043"/>
      </g>
     </g>
     <g id="text_7">
      <!-- $\mathdefault{4\times10^{2}}$ -->
      <defs>
       <path d="M 58.015625 21.1875 
L 47.21875 21.1875 
L 47.21875 0 
L 38.421875 0 
L 38.421875 21.1875 
L 3.03125 21.1875 
L 3.03125 31.453125 
L 38.8125 73.578125 
L 47.21875 73.578125 
L 47.21875 28.421875 
L 58.015625 28.421875 
z
M 38.421875 28.421875 
L 38.421875 62.84375 
L 9.1875 28.421875 
z
" id="Meiryo-52"/>
      </defs>
      <g transform="translate(44.75 316.660872)scale(0.23 -0.23)">
       <use transform="translate(0 0.814063)" xlink:href="#Meiryo-52"/>
       <use transform="translate(81.298828 0.814063)" xlink:href="#Meiryo-215"/>
       <use transform="translate(180.859375 0.814063)" xlink:href="#Meiryo-49"/>
       <use transform="translate(242.96875 0.814063)" xlink:href="#Meiryo-48"/>
       <use transform="translate(306.043633 39.434375)scale(0.7)" xlink:href="#Meiryo-50"/>
      </g>
     </g>
    </g>
    <g id="ytick_4">
     <g id="line2d_13">
      <g>
       <use style="stroke:#000000;stroke-width:0.6;" x="131.34" xlink:href="#m9a4dc8f84a" y="259.146515"/>
      </g>
     </g>
    </g>
    <g id="ytick_5">
     <g id="line2d_14">
      <g>
       <use style="stroke:#000000;stroke-width:0.6;" x="131.34" xlink:href="#m9a4dc8f84a" y="219.375713"/>
      </g>
     </g>
     <g id="text_8">
      <!-- $\mathdefault{6\times10^{2}}$ -->
      <defs>
       <path d="M 50.34375 73.78125 
L 50.34375 65.140625 
L 49.75 65.140625 
Q 45.65625 67.140625 40.1875 67.140625 
Q 29.390625 67.140625 22.9375 60.28125 
Q 16.5 53.421875 15.4375 41.21875 
Q 24.65625 46.734375 33.40625 46.734375 
Q 44.09375 46.734375 50.75 40.796875 
Q 57.421875 34.859375 57.421875 23.78125 
Q 57.421875 12.75 50.1875 5.609375 
Q 42.96875 -1.515625 32.234375 -1.515625 
Q 19.78125 -1.515625 12.859375 7.15625 
Q 5.953125 15.828125 5.953125 32.28125 
Q 5.953125 52.546875 15.203125 63.75 
Q 24.46875 74.953125 41.65625 74.953125 
Q 46.828125 74.953125 50.34375 73.78125 
z
M 15.4375 34.96875 
Q 15.234375 30.953125 15.234375 30.125 
Q 15.234375 18.5 19.765625 12.171875 
Q 24.3125 5.859375 32.328125 5.859375 
Q 39.703125 5.859375 43.890625 10.46875 
Q 48.09375 15.09375 48.09375 23.390625 
Q 48.09375 30.28125 44.140625 34.765625 
Q 40.1875 39.265625 31 39.265625 
Q 23.046875 39.265625 15.4375 34.96875 
z
" id="Meiryo-54"/>
      </defs>
      <g transform="translate(44.75 228.214541)scale(0.23 -0.23)">
       <use transform="translate(0 0.814063)" xlink:href="#Meiryo-54"/>
       <use transform="translate(81.298828 0.814063)" xlink:href="#Meiryo-215"/>
       <use transform="translate(180.859375 0.814063)" xlink:href="#Meiryo-49"/>
       <use transform="translate(242.96875 0.814063)" xlink:href="#Meiryo-48"/>
       <use transform="translate(306.043633 39.434375)scale(0.7)" xlink:href="#Meiryo-50"/>
      </g>
     </g>
    </g>
    <g id="ytick_6">
     <g id="line2d_15">
      <g>
       <use style="stroke:#000000;stroke-width:0.6;" x="131.34" xlink:href="#m9a4dc8f84a" y="185.749979"/>
      </g>
     </g>
    </g>
    <g id="ytick_7">
     <g id="line2d_16">
      <g>
       <use style="stroke:#000000;stroke-width:0.6;" x="131.34" xlink:href="#m9a4dc8f84a" y="156.622043"/>
      </g>
     </g>
    </g>
    <g id="ytick_8">
     <g id="line2d_17">
      <g>
       <use style="stroke:#000000;stroke-width:0.6;" x="131.34" xlink:href="#m9a4dc8f84a" y="130.929383"/>
      </g>
     </g>
    </g>
    <g id="text_9">
     <!-- GPU温度が50℃に達した時間[s] -->
     <defs>
      <path d="M 67.484375 5.46875 
Q 51.65625 -1.421875 41.609375 -1.421875 
Q 24.03125 -1.421875 14.28125 8.53125 
Q 4.546875 18.5 4.546875 36.859375 
Q 4.546875 54.6875 14.453125 64.796875 
Q 24.359375 74.90625 41.609375 74.90625 
Q 54.34375 74.90625 67.4375 68.21875 
L 67.4375 57.515625 
L 66.75 57.515625 
Q 54.78125 67.234375 40.046875 67.234375 
Q 27.9375 67.234375 20.96875 59.125 
Q 14.015625 51.03125 14.015625 37.15625 
Q 14.015625 22.65625 21.265625 14.46875 
Q 28.515625 6.296875 41.15625 6.296875 
Q 50.4375 6.296875 58.5 9.8125 
L 58.5 28.765625 
L 39.40625 28.765625 
L 39.40625 36.671875 
L 67.484375 36.671875 
z
" id="Meiryo-71"/>
      <path d="M 18.109375 27.78125 
L 18.109375 0 
L 9.03125 0 
L 9.03125 73.578125 
L 29.34375 73.578125 
Q 43.5625 73.578125 50.359375 67.59375 
Q 57.171875 61.625 57.171875 51.515625 
Q 57.171875 41.015625 49.71875 34.390625 
Q 42.28125 27.78125 28.90625 27.78125 
z
M 18.109375 65.875 
L 18.109375 35.453125 
L 27.203125 35.453125 
Q 38.375 35.453125 43.03125 39.765625 
Q 47.703125 44.09375 47.703125 51.265625 
Q 47.703125 58.453125 43.15625 62.15625 
Q 38.625 65.875 28.65625 65.875 
z
" id="Meiryo-80"/>
      <path d="M 64.703125 29.203125 
Q 64.703125 13.234375 57.421875 5.859375 
Q 50.140625 -1.515625 36.421875 -1.515625 
Q 8.203125 -1.515625 8.203125 29.203125 
L 8.203125 73.578125 
L 17.28125 73.578125 
L 17.28125 28.375 
Q 17.28125 16.546875 22.015625 11.34375 
Q 26.765625 6.15625 36.421875 6.15625 
Q 45.953125 6.15625 50.78125 11.25 
Q 55.609375 16.359375 55.609375 28.125 
L 55.609375 73.578125 
L 64.703125 73.578125 
z
" id="Meiryo-85"/>
      <path d="M 23.390625 63.578125 
Q 15.484375 70.75 7.5625 76.703125 
L 12.703125 81.84375 
Q 23.578125 73.96875 28.515625 69.390625 
z
M 34.078125 42.96875 
L 34.078125 79.984375 
L 87.359375 79.984375 
L 87.359375 42.96875 
z
M 41.453125 64.40625 
L 80.125 64.40625 
L 80.125 74.171875 
L 41.453125 74.171875 
z
M 80.125 58.796875 
L 41.453125 58.796875 
L 41.453125 48.875 
L 80.125 48.875 
z
M 16.84375 40.234375 
Q 10.0625 46.734375 0.828125 53.265625 
L 5.765625 58.796875 
Q 15.234375 52 21.96875 46.234375 
z
M 24.421875 -3.328125 
L 24.421875 2.78125 
L 30.609375 2.78125 
L 30.609375 34.375 
L 91.65625 34.375 
L 91.65625 2.78125 
L 97.359375 2.78125 
L 97.359375 -3.328125 
z
M 38.28125 2.78125 
L 48.6875 2.78125 
L 48.6875 28.5625 
L 38.28125 28.5625 
z
M 55.8125 2.78125 
L 66.015625 2.78125 
L 66.015625 28.5625 
L 55.8125 28.5625 
z
M 73.1875 2.78125 
L 83.984375 2.78125 
L 83.984375 28.5625 
L 73.1875 28.5625 
z
M 9.421875 -3.21875 
L 2.875 1.265625 
Q 6.890625 6.15625 12.234375 16.375 
Q 17.578125 26.609375 20.125 33.6875 
L 26.65625 31.25 
Q 24.90625 24.953125 19.578125 14.40625 
Q 14.265625 3.859375 9.421875 -3.21875 
z
" id="Meiryo-28201"/>
      <path d="M 17.625 69.390625 
L 17.625 46.046875 
Q 17.625 27.34375 14.328125 14.9375 
Q 11.03125 2.546875 5.515625 -5.078125 
L 0.59375 -1.3125 
Q 10.296875 15.046875 10.296875 41.65625 
L 10.296875 75.484375 
L 48.4375 75.484375 
L 48.4375 83.796875 
L 56.390625 83.796875 
L 56.390625 75.484375 
L 94.921875 75.484375 
L 94.921875 69.390625 
z
M 35.984375 37.546875 
L 35.984375 52.15625 
L 21.6875 52.15625 
L 21.6875 57.859375 
L 35.984375 57.859375 
L 35.984375 65.09375 
L 43.3125 65.09375 
L 43.3125 57.859375 
L 68.40625 57.859375 
L 68.40625 65.09375 
L 76.078125 65.09375 
L 76.078125 57.859375 
L 91.890625 57.859375 
L 91.890625 52.15625 
L 76.078125 52.15625 
L 76.078125 37.546875 
z
M 43.3125 52.15625 
L 43.3125 42.875 
L 68.40625 42.875 
L 68.40625 52.15625 
z
M 57.671875 3.65625 
Q 42.140625 -3.46875 19.046875 -6 
L 17.4375 0.046875 
Q 24.03125 0.640625 29.65625 1.65625 
Q 35.296875 2.6875 39.03125 3.75 
Q 42.78125 4.828125 50.140625 7.375 
Q 38.140625 14.40625 31.984375 24.90625 
L 23.921875 24.90625 
L 23.921875 30.71875 
L 83.6875 30.71875 
L 85.546875 28.609375 
Q 79.25 16.109375 64.890625 7.46875 
Q 77.875 2.6875 94.734375 1.03125 
L 91.75 -5.375 
Q 73.390625 -3.171875 57.671875 3.65625 
z
M 57.625 10.640625 
Q 69.046875 16.84375 74.515625 24.90625 
L 40.1875 24.90625 
Q 46.34375 16.359375 57.625 10.640625 
z
" id="Meiryo-24230"/>
      <path d="M 33.59375 70.21875 
Q 33.59375 65.828125 33.15625 60.203125 
L 51.90625 60.203125 
Q 58.84375 60.203125 62.765625 55.25 
Q 66.703125 50.296875 66.703125 42.28125 
Q 66.703125 22.609375 62.546875 9.671875 
Q 58.40625 -3.265625 48 -3.265625 
Q 41.9375 -3.265625 31 2.484375 
L 33.40625 8.6875 
Q 36.03125 7.421875 40.734375 5.875 
Q 45.453125 4.34375 47.21875 4.34375 
Q 51.21875 4.296875 53.578125 8.5625 
Q 55.953125 12.84375 57.484375 20.578125 
Q 59.03125 28.328125 59.03125 38.96875 
Q 59.03125 48.6875 56.421875 51.25 
Q 53.8125 53.8125 49.515625 53.8125 
L 32.515625 53.8125 
Q 30.8125 37.203125 24.625 21.96875 
Q 18.453125 6.734375 9.03125 -3.8125 
L 3.515625 0.203125 
Q 9.859375 7.71875 16.125 21.109375 
Q 22.40625 34.515625 24.609375 52.78125 
L 5.515625 52.78125 
L 5.515625 59.328125 
L 25.390625 59.328125 
Q 25.734375 62.75 25.734375 79 
L 33.59375 79 
z
M 93.5 29.734375 
L 85.890625 27.734375 
Q 79.25 52.203125 66.5 65.828125 
L 72.21875 69.734375 
Q 78.90625 62.890625 85.0625 51.234375 
Q 91.21875 39.59375 93.5 29.734375 
z
M 98.640625 71.734375 
L 93.015625 69.4375 
Q 89.75 77 86.03125 82.953125 
L 91.21875 85.453125 
Q 94.578125 80.21875 98.640625 71.734375 
z
M 84.625 69.734375 
L 79 67.234375 
Q 75.484375 75.09375 71.921875 80.90625 
L 77.203125 83.34375 
Q 81.453125 76.765625 84.625 69.734375 
z
" id="Meiryo-12364"/>
      <path d="M 8.40625 2.78125 
L 8.40625 12.546875 
L 9.1875 12.546875 
Q 18.703125 6.34375 29 6.34375 
Q 36.921875 6.34375 41.671875 10.859375 
Q 46.4375 15.375 46.4375 23.34375 
Q 46.4375 37.796875 26.609375 37.796875 
Q 20.953125 37.796875 11.578125 35.84375 
L 11.578125 73.578125 
L 55.28125 73.578125 
L 55.28125 65.671875 
L 20.359375 65.671875 
L 20.359375 44.828125 
Q 26.8125 45.453125 29.046875 45.453125 
Q 42.1875 45.453125 48.96875 39.78125 
Q 55.765625 34.125 55.765625 23.296875 
Q 55.765625 12.359375 48.40625 5.421875 
Q 41.0625 -1.515625 29.203125 -1.515625 
Q 17.671875 -1.515625 8.40625 2.78125 
z
" id="Meiryo-53"/>
      <path d="M 13.671875 67.28125 
Q 13.671875 63.96875 16.03125 61.59375 
Q 18.40625 59.234375 21.734375 59.234375 
Q 25.046875 59.234375 27.40625 61.59375 
Q 29.78125 63.96875 29.78125 67.28125 
Q 29.78125 70.609375 27.40625 72.96875 
Q 25.046875 75.34375 21.734375 75.34375 
Q 18.40625 75.34375 16.03125 72.96875 
Q 13.671875 70.609375 13.671875 67.28125 
z
M 7.515625 67.28125 
Q 7.515625 73.046875 11.734375 77.140625 
Q 15.96875 81.25 21.921875 81.25 
Q 27.828125 81.25 32.046875 77.140625 
Q 36.28125 73.046875 36.28125 67.28125 
Q 36.28125 61.53125 32.046875 57.421875 
Q 27.828125 53.328125 21.921875 53.328125 
Q 15.96875 53.328125 11.734375 57.421875 
Q 7.515625 61.53125 7.515625 67.28125 
z
M 91.40625 5.375 
Q 84.078125 2 81 0.984375 
Q 74.078125 -1.3125 67.046875 -1.3125 
Q 50.984375 -1.3125 41.703125 8.109375 
Q 31.84375 18.109375 31.84375 36.71875 
Q 31.84375 54.734375 41.609375 64.984375 
Q 51.078125 74.90625 67.09375 74.90625 
Q 78.71875 74.90625 91.40625 68.3125 
L 91.40625 57.625 
L 90.71875 57.625 
Q 79.25 67.234375 66.5 67.234375 
Q 55.21875 67.234375 48.484375 59.625 
Q 41.3125 51.515625 41.3125 36.71875 
Q 41.3125 21.875 48.78125 13.765625 
Q 55.609375 6.390625 66.609375 6.390625 
Q 75.09375 6.390625 82.03125 9.96875 
Q 85.75 11.859375 90.71875 16.109375 
L 91.40625 16.109375 
z
" id="Meiryo-8451"/>
      <path d="M 24.21875 -0.984375 
L 17.234375 -2.59375 
Q 12.203125 13.484375 12.203125 32.28125 
Q 12.203125 52.78125 18.890625 76.515625 
L 26.421875 75.203125 
Q 19.671875 52.984375 19.671875 31.890625 
Q 19.671875 14.546875 24.21875 -0.984375 
z
M 90.328125 63.53125 
Q 82.5625 63.671875 75.6875 63.671875 
Q 65.578125 63.671875 39.109375 62.3125 
Q 39.109375 64.5 38.8125 68.890625 
Q 63.96875 70.359375 79.6875 70.359375 
Q 87.5 70.359375 90.09375 70.21875 
L 90.09375 69.78125 
Q 90.09375 67.53125 90.328125 63.53125 
z
M 90.921875 1.421875 
Q 80.71875 0.34375 70.953125 0.34375 
Q 57.375 0.34375 50.65625 1.921875 
Q 43.953125 3.515625 40.484375 7.171875 
Q 37.015625 10.84375 37.015625 16.609375 
Q 37.015625 25 44.34375 34.328125 
L 50 31.296875 
Q 44 24.703125 44 17.046875 
Q 44 13.234375 47.234375 10.890625 
Q 50.484375 8.546875 55.921875 7.78125 
Q 61.375 7.03125 71.390625 7.03125 
Q 81.546875 7.03125 90.921875 8.203125 
z
" id="Meiryo-12395"/>
      <path d="M 30.328125 15.140625 
L 30.328125 20.953125 
L 57.125 20.953125 
L 57.125 28.46875 
L 34.90625 28.46875 
L 34.90625 33.796875 
L 57.125 33.796875 
L 57.125 41.359375 
L 32.125 41.359375 
L 32.125 46.734375 
L 45.515625 46.734375 
L 40.4375 57.765625 
L 29.78125 57.765625 
L 29.78125 63.484375 
L 57.03125 63.484375 
L 57.03125 71.234375 
L 35.203125 71.234375 
L 35.203125 76.859375 
L 57.03125 76.859375 
L 57.03125 83.15625 
L 64.59375 83.15625 
L 64.59375 76.859375 
L 87.359375 76.859375 
L 87.359375 71.234375 
L 64.59375 71.234375 
L 64.59375 63.484375 
L 93.265625 63.484375 
L 93.265625 57.765625 
L 81.890625 57.765625 
L 75.78125 46.734375 
L 90.375 46.734375 
L 90.375 41.359375 
L 64.796875 41.359375 
L 64.796875 33.796875 
L 87.84375 33.796875 
L 87.84375 28.46875 
L 64.796875 28.46875 
L 64.796875 20.953125 
L 93.453125 20.953125 
L 93.453125 15.140625 
L 64.796875 15.140625 
L 64.796875 6.0625 
L 57.125 6.0625 
L 57.125 15.140625 
z
M 47.953125 57.765625 
L 52.828125 46.734375 
L 68.65625 46.734375 
Q 70.609375 50.53125 74.078125 57.765625 
z
M 18.0625 61.03125 
Q 13.765625 68.703125 6.34375 77.734375 
L 12.546875 81.640625 
Q 20.21875 72.171875 24.90625 65.09375 
z
M 96.828125 -3.953125 
L 69.578125 -4.109375 
Q 49.515625 -4.109375 44.390625 -3.609375 
Q 39.265625 -3.125 34.375 -2.046875 
Q 29.5 -0.984375 25.6875 1.609375 
Q 21.875 4.203125 20.21875 7.171875 
Q 12.109375 -1.125 4.203125 -4.984375 
L 1.5625 1.65625 
Q 4.296875 2.78125 9.046875 5.90625 
Q 13.8125 9.03125 15.921875 11.03125 
L 15.921875 40.828125 
L 2.984375 40.828125 
L 2.984375 46.828125 
L 23.578125 46.828125 
L 23.578125 15.53125 
Q 23.578125 10.890625 26.953125 7.953125 
Q 30.328125 5.03125 34.453125 4.09375 
Q 38.578125 3.171875 42.546875 2.578125 
Q 46.53125 2 64.65625 2 
Q 87.5 2 98.25 2.6875 
z
" id="Meiryo-36948"/>
      <path d="M 92.71875 34.1875 
Q 87.203125 14.65625 76.453125 5.46875 
Q 65.71875 -3.71875 48.828125 -3.71875 
Q 42.234375 -3.71875 37.109375 -2.390625 
Q 31.984375 -1.078125 28.3125 1.53125 
Q 24.65625 4.15625 22.453125 8.078125 
Q 20.265625 12.015625 19.65625 16.59375 
Q 19.046875 21.1875 19.046875 31.78125 
Q 19.046875 49.8125 21.1875 76.03125 
L 29.203125 76.03125 
Q 26.609375 50.875 26.609375 31.390625 
Q 26.609375 24.609375 26.921875 19.9375 
Q 27.25 15.28125 29.765625 11.328125 
Q 32.28125 7.375 37.25 5.3125 
Q 42.234375 3.265625 49.609375 3.265625 
Q 62.84375 3.265625 71.625 10.71875 
Q 80.421875 18.171875 85.890625 36.71875 
z
" id="Meiryo-12375"/>
      <path d="M 34.90625 79.6875 
Q 34.90625 74.21875 34.421875 66.609375 
L 69.921875 66.609375 
L 69.921875 60.109375 
L 33.890625 60.109375 
Q 32.125 41.3125 25.578125 22.953125 
Q 19.046875 4.59375 12.3125 -3.609375 
L 6.5 0.203125 
Q 13.578125 10.25 19.21875 27.171875 
Q 24.859375 44.09375 26.171875 60.109375 
L 8.40625 60.109375 
L 8.40625 66.609375 
L 26.609375 66.609375 
Q 26.90625 72.90625 26.90625 79.6875 
z
M 90.625 50.78125 
L 90.53125 44.390625 
Q 88.140625 44.484375 86.140625 44.484375 
Q 68.65625 44.484375 47.703125 42.484375 
L 47.21875 48.921875 
Q 66.3125 50.921875 84.96875 50.921875 
Q 88.234375 50.921875 90.625 50.78125 
z
M 93.5 0 
Q 85.75 -1.3125 72.515625 -1.3125 
Q 61.328125 -1.3125 54.953125 -0.390625 
Q 48.578125 0.53125 44.921875 3.84375 
Q 41.265625 7.171875 41.265625 11.96875 
Q 41.265625 18.890625 46.828125 25.09375 
L 52.296875 22.015625 
Q 48.734375 17.234375 48.734375 12.796875 
Q 48.6875 9.765625 52.03125 7.5625 
Q 55.375 5.375 70.75 5.375 
Q 82.46875 5.375 93.109375 6.6875 
z
" id="Meiryo-12383"/>
      <path d="M 74.359375 -5.46875 
L 61.8125 -5.46875 
L 60.890625 1.5625 
L 71.1875 1.5625 
Q 72.90625 1.5625 74.25 2.703125 
Q 75.59375 3.859375 75.59375 5.328125 
L 75.59375 27.984375 
L 37.84375 27.984375 
L 37.84375 33.984375 
L 75.59375 33.984375 
L 75.59375 45.21875 
L 36.625 45.21875 
L 36.625 51.21875 
L 61.46875 51.21875 
L 61.46875 64.796875 
L 39.984375 64.796875 
L 39.984375 70.90625 
L 61.46875 70.90625 
L 61.46875 83.0625 
L 69.34375 83.0625 
L 69.34375 70.90625 
L 92.28125 70.90625 
L 92.28125 64.796875 
L 69.34375 64.796875 
L 69.34375 51.21875 
L 95.953125 51.21875 
L 95.953125 45.21875 
L 83.453125 45.21875 
L 83.453125 33.984375 
L 93.3125 33.984375 
L 93.3125 27.984375 
L 83.453125 27.984375 
L 83.453125 1.953125 
Q 83.453125 -1.375 80.765625 -3.421875 
Q 78.078125 -5.46875 74.359375 -5.46875 
z
M 14.546875 11.375 
L 14.546875 4.828125 
L 7.328125 4.828125 
L 7.328125 77.640625 
L 33.0625 77.640625 
L 33.0625 11.375 
z
M 25.78125 71.828125 
L 14.546875 71.828125 
L 14.546875 48.578125 
L 25.78125 48.578125 
z
M 14.546875 42.96875 
L 14.546875 17.1875 
L 25.78125 17.1875 
L 25.78125 42.96875 
z
M 53.421875 4.734375 
Q 49.703125 9.859375 40.765625 20.953125 
L 46.578125 24.8125 
Q 53.265625 17.4375 59.765625 8.890625 
z
" id="Meiryo-26178"/>
      <path d="M 15.4375 47.21875 
L 15.4375 -6.25 
L 8.109375 -6.25 
L 8.109375 79.734375 
L 43.359375 79.734375 
L 43.359375 47.21875 
z
M 15.4375 65.96875 
L 36.234375 65.96875 
L 36.234375 74.3125 
L 15.4375 74.3125 
z
M 36.234375 60.984375 
L 15.4375 60.984375 
L 15.4375 52.78125 
L 36.234375 52.78125 
z
M 82.234375 -5.328125 
L 72.5625 -5.328125 
L 71.4375 1.3125 
L 80.515625 1.3125 
Q 81.84375 1.3125 82.90625 2.3125 
Q 83.984375 3.328125 83.984375 4.546875 
L 83.984375 47.21875 
L 55.515625 47.21875 
L 55.515625 79.734375 
L 91.5 79.734375 
L 91.5 2.828125 
Q 91.5 -0.984375 88.953125 -3.15625 
Q 86.421875 -5.328125 82.234375 -5.328125 
z
M 62.75 65.96875 
L 83.984375 65.96875 
L 83.984375 74.3125 
L 62.75 74.3125 
z
M 83.984375 60.984375 
L 62.75 60.984375 
L 62.75 52.78125 
L 83.984375 52.78125 
z
M 37.25 2 
L 37.25 -0.34375 
L 30.21875 -0.34375 
L 30.21875 40.140625 
L 67.53125 40.140625 
L 67.53125 2 
z
M 60.203125 24.46875 
L 60.203125 34.765625 
L 37.25 34.765625 
L 37.25 24.46875 
z
M 37.25 7.625 
L 60.203125 7.625 
L 60.203125 19.234375 
L 37.25 19.234375 
z
" id="Meiryo-38291"/>
      <path d="M 36.328125 -19.390625 
L 10.890625 -19.390625 
L 10.890625 76.859375 
L 36.328125 76.859375 
L 36.328125 70.5625 
L 18.84375 70.5625 
L 18.84375 -13.09375 
L 36.328125 -13.09375 
z
" id="Meiryo-91"/>
      <path d="M 23.875 -1.3125 
Q 13.53125 -1.3125 4.4375 3.21875 
L 4.4375 13.1875 
L 4.78125 13.1875 
Q 14.65625 5.859375 24.359375 5.859375 
Q 37.984375 5.859375 37.984375 14.453125 
Q 37.984375 17.828125 36.171875 19.671875 
Q 34.375 21.53125 28.65625 22.859375 
Q 23.875 23.78125 17.671875 25.234375 
Q 11.46875 26.703125 8.078125 30.390625 
Q 4.6875 34.078125 4.6875 39.84375 
Q 4.6875 47.171875 10.640625 51.828125 
Q 16.609375 56.5 26.5625 56.5 
Q 36.8125 56.5 44.578125 52.484375 
L 44.578125 43.015625 
L 44.234375 43.015625 
Q 35.6875 49.3125 26.125 49.3125 
Q 20.21875 49.3125 16.796875 47.140625 
Q 13.375 44.96875 13.375 41.109375 
Q 13.375 37.703125 15.203125 35.890625 
Q 17.046875 34.078125 22.515625 32.71875 
L 33.296875 30.375 
Q 39.984375 28.90625 43.359375 25.21875 
Q 46.734375 21.53125 46.734375 15.671875 
Q 46.734375 8.109375 40.53125 3.390625 
Q 34.328125 -1.3125 23.875 -1.3125 
z
" id="Meiryo-115"/>
      <path d="M 33.0625 -19.390625 
L 7.625 -19.390625 
L 7.625 -13.09375 
L 25.09375 -13.09375 
L 25.09375 70.5625 
L 7.625 70.5625 
L 7.625 76.859375 
L 33.0625 76.859375 
z
" id="Meiryo-93"/>
     </defs>
     <g transform="translate(34.235 476.71)rotate(-90)scale(0.32 -0.32)">
      <use xlink:href="#Meiryo-71"/>
      <use x="72.802734" xlink:href="#Meiryo-80"/>
      <use x="132.373047" xlink:href="#Meiryo-85"/>
      <use x="205.273438" xlink:href="#Meiryo-28201"/>
      <use x="305.273438" xlink:href="#Meiryo-24230"/>
      <use x="405.273438" xlink:href="#Meiryo-12364"/>
      <use x="505.273438" xlink:href="#Meiryo-53"/>
      <use x="567.382812" xlink:href="#Meiryo-48"/>
      <use x="629.492188" xlink:href="#Meiryo-8451"/>
      <use x="729.492188" xlink:href="#Meiryo-12395"/>
      <use x="829.492188" xlink:href="#Meiryo-36948"/>
      <use x="929.492188" xlink:href="#Meiryo-12375"/>
      <use x="1029.492188" xlink:href="#Meiryo-12383"/>
      <use x="1129.492188" xlink:href="#Meiryo-26178"/>
      <use x="1229.492188" xlink:href="#Meiryo-38291"/>
      <use x="1329.492188" xlink:href="#Meiryo-91"/>
      <use x="1373.4375" xlink:href="#Meiryo-115"/>
      <use x="1423.242188" xlink:href="#Meiryo-93"/>
     </g>
    </g>
   </g>
   <g id="line2d_18">
    <path clip-path="url(#pe0bcff732a)" d="M 161.776364 90.755 
" style="fill:none;stroke:#1f77b4;stroke-linecap:square;stroke-width:1.5;"/>
    <defs>
     <path d="M -7.5 -12.990381 
L -15 -0 
L -7.5 12.990381 
L 7.5 12.990381 
L 15 0 
L 7.5 -12.990381 
z
" id="m0dd719977b" style="stroke:#1f77b4;stroke-linejoin:miter;"/>
    </defs>
    <g clip-path="url(#pe0bcff732a)">
     <use style="fill:#1f77b4;stroke:#1f77b4;stroke-linejoin:miter;" x="161.776364" xlink:href="#m0dd719977b" y="90.755"/>
    </g>
   </g>
   <g id="line2d_19">
    <path clip-path="url(#pe0bcff732a)" d="M 466.14 267.597265 
" style="fill:none;stroke:#ff7f0e;stroke-linecap:square;stroke-width:1.5;"/>
    <defs>
     <path d="M -7.5 -12.990381 
L -15 -0 
L -7.5 12.990381 
L 7.5 12.990381 
L 15 0 
L 7.5 -12.990381 
z
" id="mfbf99dc6cb" style="stroke:#ff7f0e;stroke-linejoin:miter;"/>
    </defs>
    <g clip-path="url(#pe0bcff732a)">
     <use style="fill:#ff7f0e;stroke:#ff7f0e;stroke-linejoin:miter;" x="466.14" xlink:href="#mfbf99dc6cb" y="267.597265"/>
    </g>
   </g>
   <g id="line2d_20">
    <path clip-path="url(#pe0bcff732a)" d="M 770.503636 321.900185 
" style="fill:none;stroke:#2ca02c;stroke-linecap:square;stroke-width:1.5;"/>
    <defs>
     <path d="M -7.5 -12.990381 
L -15 -0 
L -7.5 12.990381 
L 7.5 12.990381 
L 15 0 
L 7.5 -12.990381 
z
" id="m9f3d64be3d" style="stroke:#2ca02c;stroke-linejoin:miter;"/>
    </defs>
    <g clip-path="url(#pe0bcff732a)">
     <use style="fill:#2ca02c;stroke:#2ca02c;stroke-linejoin:miter;" x="770.503636" xlink:href="#m9f3d64be3d" y="321.900185"/>
    </g>
   </g>
   <g id="line2d_21">
    <path clip-path="url(#pe0bcff732a)" d="M 161.776364 90.755 
L 770.503636 393.155 
" style="fill:none;stroke:#d62728;stroke-dasharray:5,8.25;stroke-dashoffset:0;stroke-width:5;"/>
   </g>
   <g id="patch_3">
    <path d="M 131.34 408.275 
L 131.34 75.635 
" style="fill:none;stroke:#000000;stroke-linecap:square;stroke-linejoin:miter;stroke-width:0.8;"/>
   </g>
   <g id="patch_4">
    <path d="M 800.94 408.275 
L 800.94 75.635 
" style="fill:none;stroke:#000000;stroke-linecap:square;stroke-linejoin:miter;stroke-width:0.8;"/>
   </g>
   <g id="patch_5">
    <path d="M 131.34 408.275 
L 800.94 408.275 
" style="fill:none;stroke:#000000;stroke-linecap:square;stroke-linejoin:miter;stroke-width:0.8;"/>
   </g>
   <g id="patch_6">
    <path d="M 131.34 75.635 
L 800.94 75.635 
" style="fill:none;stroke:#000000;stroke-linecap:square;stroke-linejoin:miter;stroke-width:0.8;"/>
   </g>
   <g id="text_10">
    <!-- 1082 -->
    <defs>
     <path d="M 18.84375 39.015625 
L 18.84375 39.59375 
Q 7.171875 45.953125 7.171875 56.0625 
Q 7.171875 64.40625 13.90625 69.828125 
Q 20.65625 75.25 31.0625 75.25 
Q 41.84375 75.25 48.390625 70.109375 
Q 54.9375 64.984375 54.9375 56.6875 
Q 54.9375 51.3125 51.6875 46.59375 
Q 48.4375 41.890625 42.671875 39.265625 
L 42.671875 38.625 
Q 56.890625 32.515625 56.890625 20.359375 
Q 56.890625 10.890625 49.515625 4.609375 
Q 42.140625 -1.65625 31.0625 -1.65625 
Q 19.28125 -1.65625 12.25 4.375 
Q 5.21875 10.40625 5.21875 20.171875 
Q 5.21875 32.90625 18.84375 39.015625 
z
M 45.90625 56.640625 
Q 45.90625 61.921875 41.84375 65.28125 
Q 37.796875 68.65625 31 68.65625 
Q 24.5625 68.65625 20.484375 65.5 
Q 16.40625 62.359375 16.40625 57.234375 
Q 16.40625 51.5625 21.484375 47.890625 
Q 26.5625 44.234375 36.921875 41.0625 
Q 45.90625 46.875 45.90625 56.640625 
z
M 24.8125 37.25 
Q 14.5 31.453125 14.5 20.84375 
Q 14.5 13.765625 19.1875 9.390625 
Q 23.875 5.03125 31.15625 5.03125 
Q 38.625 5.03125 43.015625 8.859375 
Q 47.40625 12.703125 47.40625 19.390625 
Q 47.40625 23.921875 45.40625 26.671875 
Q 43.40625 29.4375 39.578125 31.34375 
Q 35.75 33.25 24.8125 37.25 
z
" id="Meiryo-56"/>
    </defs>
    <g transform="translate(179.725097 97.8175)scale(0.25 -0.25)">
     <use xlink:href="#Meiryo-49"/>
     <use x="62.109375" xlink:href="#Meiryo-48"/>
     <use x="124.21875" xlink:href="#Meiryo-56"/>
     <use x="186.328125" xlink:href="#Meiryo-50"/>
    </g>
   </g>
   <g id="text_11">
    <!-- 481 -->
    <g transform="translate(373.293754 274.659765)scale(0.25 -0.25)">
     <use xlink:href="#Meiryo-52"/>
     <use x="62.109375" xlink:href="#Meiryo-56"/>
     <use x="124.21875" xlink:href="#Meiryo-49"/>
    </g>
   </g>
   <g id="text_12">
    <!-- 375 -->
    <defs>
     <path d="M 56.546875 63.375 
L 23.53125 0 
L 13.71875 0 
L 48.828125 65.671875 
L 6.78125 65.671875 
L 6.78125 73.578125 
L 56.546875 73.578125 
z
" id="Meiryo-55"/>
    </defs>
    <g transform="translate(723.921605 296.587015)scale(0.25 -0.25)">
     <use xlink:href="#Meiryo-51"/>
     <use x="62.109375" xlink:href="#Meiryo-55"/>
     <use x="124.21875" xlink:href="#Meiryo-53"/>
    </g>
   </g>
  </g>
 </g>
 <defs>
  <clipPath id="pe0bcff732a">
   <rect height="332.64" width="669.6" x="131.34" y="75.635"/>
  </clipPath>
 </defs>
</svg>
