<?xml version="1.0" encoding="UTF-8" standalone="no"?>
<svg
   xmlns:dc="http://purl.org/dc/elements/1.1/"
   xmlns:cc="http://creativecommons.org/ns#"
   xmlns:rdf="http://www.w3.org/1999/02/22-rdf-syntax-ns#"
   xmlns:svg="http://www.w3.org/2000/svg"
   xmlns="http://www.w3.org/2000/svg"
   id="svg8"
   version="1.1"
   viewBox="0 0 168.54013 32.902523"
   height="32.902523mm"
   width="168.54013mm">
  <defs
     id="defs2" />
  <metadata
     id="metadata5">
    <rdf:RDF>
      <cc:Work
         rdf:about="">
        <dc:format>image/svg+xml</dc:format>
        <dc:type
           rdf:resource="http://purl.org/dc/dcmitype/StillImage" />
        <dc:title></dc:title>
      </cc:Work>
    </rdf:RDF>
  </metadata>
  <g
     transform="translate(-13.224445,-127.51578)"
     id="layer1">
    <g
       transform="matrix(0.26458333,0,0,0.26458333,12.695278,127.60997)"
       id="g856">
      <path
         id="rect835"
         d="m 38.5,2 h 177 c 9.141,0 16.5,7.359 16.5,16.5 v 77 c 0,9.141 -7.359,16.5 -16.5,16.5 H 38.5 C 29.359,112 22,104.641 22,95.5 v -77 C 22,9.359 29.359,2 38.5,2 Z"
         style="fill:none;stroke:#000000;stroke-width:4" />
      <path
         style="fill:none;stroke:#000000;stroke-width:4;stroke-miterlimit:10"
         d="M 22,122 V 2"
         stroke-miterlimit="10"
         pointer-events="none"
         id="path837" />
      <path
         style="fill:none;stroke:#000000;stroke-width:4;stroke-miterlimit:10"
         d="M 2,2 H 22"
         stroke-miterlimit="10"
         pointer-events="none"
         id="path839" />
      <path
         id="rect841"
         d="m 82,112 h 80 v 10 H 82 Z"
         style="fill:none;stroke:#000000;stroke-width:4" />
      <path
         id="rect843"
         d="m 52,112 h 20 v 10 H 52 Z"
         style="fill:none;stroke:#000000;stroke-width:4" />
    </g>
    <g
       id="flowRoot858"
       style="font-style:normal;font-weight:normal;font-size:40px;line-height:1.25;font-family:sans-serif;letter-spacing:0px;word-spacing:0px;fill:#000000;fill-opacity:1;stroke:none"
       transform="matrix(0.26458333,0,0,0.26458333,4.6144524,1.8088179)"
       aria-label="ðŸ¶">
      <path
         id="path893"
         style="font-size:74.66666412px"
         d="m 233.78515,516.46662 q 3.31771,3.17187 5.10417,7.18229 1.82292,3.97396 1.82292,8.56771 v 28.83854 q 0,2.15104 -0.83854,4.04687 -0.83855,1.89583 -2.29688,3.31771 -1.42187,1.42187 -3.35417,2.26042 -1.89583,0.83854 -4.01041,0.83854 H 209.2487 q -1.53125,0 -2.95313,-0.4375 -1.42187,-0.40104 -2.69792,-1.23959 -2.73437,2.07813 -6.01562,3.17188 -3.24479,1.13021 -6.67187,1.13021 -4.33855,0 -8.16667,-1.67709 -3.79167,-1.64062 -6.63542,-4.48437 -2.84375,-2.84375 -4.52083,-6.67188 -1.64063,-3.79166 -1.64063,-8.1302 v -20.96354 h 28.83854 q 0,-4.59375 1.78646,-8.56771 1.78646,-3.97396 5.10417,-7.18229 -1.49479,-1.56771 -2.36979,-3.09896 -0.83854,-1.56771 -1.27604,-3.13542 -0.4375,-1.60417 -0.54688,-3.28125 -0.10937,-1.67708 -0.10937,-3.53646 v -2.66146 q -0.6198,-0.83854 -0.94792,-1.82291 -0.32813,-1.02084 -0.32813,-2.07813 0,-1.34896 0.51042,-2.55208 0.51042,-1.20313 1.38542,-2.07813 0.91146,-0.91145 2.07812,-1.42187 1.20313,-0.51042 2.55209,-0.51042 h 26.21354 q 1.34896,0 2.55208,0.51042 1.20313,0.51042 2.07813,1.42187 0.91145,0.875 1.42187,2.07813 0.51042,1.20312 0.51042,2.55208 0,1.05729 -0.36459,2.07813 -0.32812,0.98437 -0.94791,1.82291 v 2.66146 q 0,1.85938 -0.10938,3.53646 -0.10937,1.67708 -0.54687,3.28125 -0.4375,1.56771 -1.3125,3.13542 -0.83854,1.53125 -2.33334,3.09896 z m -29.78645,15.75 h 31.46354 q 0,-2.11459 -0.47396,-3.90105 -0.47396,-1.78645 -1.34896,-3.35416 -0.875,-1.56771 -2.07812,-2.98959 -1.20313,-1.42187 -2.66146,-2.84375 -0.58334,-0.54687 -0.94792,-1.16666 -0.36458,-0.61979 -0.36458,-1.45834 0,-0.76562 0.36458,-1.38541 0.40104,-0.65625 0.98438,-1.27604 0.58333,-0.6198 1.27604,-1.3125 0.69271,-0.69271 1.27604,-1.60417 0.58333,-0.91146 0.94792,-2.07813 0.40104,-1.20312 0.40104,-2.84375 v -7.83854 q 0.54687,0 0.91146,-0.36458 0.40104,-0.40104 0.40104,-0.94792 0,-0.54687 -0.40104,-0.91146 -0.36459,-0.40104 -0.91146,-0.40104 H 206.6237 q -0.54688,0 -0.94792,0.40104 -0.36458,0.36459 -0.36458,0.91146 0,0.54688 0.36458,0.94792 0.40104,0.36458 0.94792,0.36458 v 7.83854 q 0,1.64063 0.36458,2.84375 0.40104,1.16667 0.98437,2.07813 0.58334,0.91146 1.27605,1.60417 0.6927,0.6927 1.27604,1.3125 0.58333,0.61979 0.94791,1.27604 0.40105,0.61979 0.40105,1.38541 0,0.83855 -0.36459,1.45834 -0.36458,0.61979 -0.94791,1.16666 -1.4948,1.42188 -2.69792,2.84375 -1.20313,1.42188 -2.07813,2.98959 -0.83854,1.56771 -1.3125,3.35416 -0.47395,1.78646 -0.47395,3.90105 z m 31.46354,28.83854 V 540.09162 H 209.2487 v 13.08854 q 0,3.13541 -0.98438,6.01562 -0.98437,2.88021 -2.95312,5.32292 0.72916,0.83854 1.75,1.27604 1.05729,0.47396 2.1875,0.47396 h 20.96354 q 1.09375,0 2.04166,-0.40104 0.94792,-0.40105 1.64063,-1.13021 0.72917,-0.69271 1.13021,-1.64063 0.4375,-0.94791 0.4375,-2.04166 z m -44.55208,7.83854 q 2.95312,0 5.76041,-1.20313 2.84375,-1.16666 5.03125,-3.20833 2.22396,-2.00521 3.57292,-4.73958 1.34896,-2.69792 1.34896,-5.76042 v -6.05208 h -31.42709 v 6.05208 q 0,3.02604 1.34896,5.72396 1.34896,2.73437 3.57292,4.77604 2.22396,2.04167 5.03125,3.20833 2.80729,1.20313 5.76042,1.20313 z m 15.71354,-28.80208 v -2.625 h -31.42709 v 2.625 z m -31.42709,5.21354 h 31.42709 v -2.58855 h -31.42709 z m 60.26563,-7.83854 v -2.625 H 209.2487 v 2.625 z" />
    </g>
    <g
       id="flowRoot866"
       style="font-style:normal;font-weight:normal;font-size:40px;line-height:1.25;font-family:sans-serif;letter-spacing:0px;word-spacing:0px;fill:#000000;fill-opacity:1;stroke:none"
       transform="matrix(0.26458333,0,0,0.26458333,0.07087054,0.47247024)" />
    <g
       transform="translate(0.07087054,0.94494048)"
       id="text876"
       style="font-style:normal;font-weight:normal;font-size:10.58333302px;line-height:8px;font-family:sans-serif;letter-spacing:0px;word-spacing:0px;fill:#000000;fill-opacity:1;stroke:none;stroke-width:0.26458332"
       aria-label="High Performance
ATSUKAN
Computing">
      <path
         id="path897"
         style="font-style:normal;font-variant:normal;font-weight:normal;font-stretch:normal;font-size:12.69999981px;line-height:11px;font-family:'Ricty Diminished';-inkscape-font-specification:'Ricty Diminished';stroke-width:0.26458332"
         d="m 81.484926,127.18044 h 0.9906 q 0.0127,0.0127 0.0127,0.0635 0,0.0508 -0.0381,0.1143 -0.0381,0.0508 -0.0381,0.127 v 3.0861 h 3.0988 v -3.3909 h 0.9652 q 0.0127,0.0127 0.0127,0.0508 0,0.0508 -0.0508,0.1143 -0.0381,0.0508 -0.0381,0.1143 v 7.6454 h -0.9017 v -3.7846 h -3.0861 v 3.7719 h -0.9271 z" />
      <path
         id="path899"
         style="font-style:normal;font-variant:normal;font-weight:normal;font-stretch:normal;font-size:12.69999981px;line-height:11px;font-family:'Ricty Diminished';-inkscape-font-specification:'Ricty Diminished';stroke-width:0.26458332"
         d="m 89.917726,126.95184 q 0.1905,-0.1905 0.4699,-0.1905 0.2794,0 0.4572,0.1905 0.1905,0.1905 0.1905,0.4572 0,0.2667 -0.1905,0.4699 -0.1905,0.1905 -0.4572,0.1905 -0.2794,0 -0.4699,-0.1905 -0.1905,-0.2032 -0.1905,-0.4699 0,-0.2667 0.1905,-0.4572 z m -1.4224,2.3368 h 2.3241 v 5.0673 h 1.3589 v 0.7366 h -3.7592 v -0.7366 h 1.4859 v -4.3307 h -1.4097 z" />
      <path
         id="path901"
         style="font-style:normal;font-variant:normal;font-weight:normal;font-stretch:normal;font-size:12.69999981px;line-height:11px;font-family:'Ricty Diminished';-inkscape-font-specification:'Ricty Diminished';stroke-width:0.26458332"
         d="m 95.543825,134.78774 q -0.7239,0.3937 -0.7239,0.9017 0,0.4826 0.5715,0.7112 0.4826,0.1905 1.2065,0.1905 0.8255,0 1.2954,-0.254 0.5461,-0.3048 0.5461,-0.7747 0,-0.2286 -0.1651,-0.4318 -0.1524,-0.1905 -0.5207,-0.2413 -0.0127,0 -1.2319,-0.0381 -0.5842,-0.0127 -0.9779,-0.0635 z m 0.889,-5.6896 q 0.8128,0 1.3716,0.5588 0.6985,-0.5969 1.6129,-0.5207 l 0.1143,0.7493 q -0.1143,-0.0254 -0.3429,-0.0254 -0.5207,0 -1.0033,0.2794 0.2921,0.4445 0.2921,0.9779 0,0.8001 -0.6223,1.397 -0.6223,0.5969 -1.4732,0.5969 -0.3556,0 -0.7366,-0.1397 -0.4064,0.4064 -0.4064,0.6604 0,0.2794 0.3429,0.381 0.2159,0.0635 0.8255,0.0635 0.1016,0 0.4826,0 0.381,-0.0127 0.5461,0 0.1651,0 0.4445,0.0381 0.2794,0.0381 0.4953,0.127 0.9017,0.3683 0.9017,1.2573 0,0.6858 -0.6604,1.2319 -0.6604,0.5461 -2.0066,0.5461 -1.397,0 -2.0193,-0.4064 -0.6096,-0.4064 -0.6096,-0.9652 0,-0.6858 0.9525,-1.2827 -0.4699,-0.2413 -0.4699,-0.7747 0,-0.5588 0.6604,-1.1176 -0.8636,-0.5588 -0.8636,-1.5748 0,-0.8382 0.6477,-1.4478 0.6477,-0.6096 1.524,-0.6096 z m -0.9652,1.1049 q -0.3683,0.381 -0.3683,0.9017 0,0.5207 0.3683,0.9017 0.381,0.3683 0.9144,0.3683 0.5334,0 0.9017,-0.3683 0.3683,-0.381 0.3683,-0.9017 0,-0.5334 -0.3683,-0.9017 -0.3683,-0.381 -0.9017,-0.381 -0.5334,0 -0.9144,0.381 z" />
      <path
         id="path903"
         style="font-style:normal;font-variant:normal;font-weight:normal;font-stretch:normal;font-size:12.69999981px;line-height:11px;font-family:'Ricty Diminished';-inkscape-font-specification:'Ricty Diminished';stroke-width:0.26458332"
         d="m 100.73812,135.09254 v -8.4455 h 1.0541 v 0.0381 q 0,0.0635 -0.0762,0.1397 -0.0508,0.0635 -0.0508,0.127 v 3.3655 q 0.3429,-0.5207 0.8509,-0.8382 0.5207,-0.3302 1.0795,-0.3302 0.4953,0 0.9144,0.2794 0.4191,0.2667 0.635,0.7493 0.2032,0.4699 0.2032,1.397 v 3.5179 h -0.9017 v -3.4925 q 0,-0.9144 -0.3048,-1.2827 -0.2921,-0.3683 -0.7874,-0.3683 -0.4064,0 -0.8001,0.2667 -0.3937,0.254 -0.5969,0.5334 -0.2921,0.381 -0.2921,1.0033 v 3.3401 z" />
      <path
         id="path905"
         style="font-style:normal;font-variant:normal;font-weight:normal;font-stretch:normal;font-size:12.69999981px;line-height:11px;font-family:'Ricty Diminished';-inkscape-font-specification:'Ricty Diminished';stroke-width:0.26458332"
         d="m 114.21283,128.01864 -0.0127,2.794 h 1.6002 q 0.6223,0 0.9271,-0.1524 0.6985,-0.3429 0.6985,-1.2065 0,-0.9017 -0.7493,-1.27 -0.3175,-0.1651 -0.9652,-0.1651 z m -0.9144,-0.8382 h 2.413 q 0.9652,0 1.4859,0.2667 0.5461,0.2794 0.8382,0.8128 0.3048,0.5207 0.3048,1.143 0,0.6223 -0.2921,1.1557 -0.2921,0.5207 -0.8255,0.7874 -0.508,0.254 -1.4478,0.254 h -1.5621 v 3.4925 h -0.9144 z" />
      <path
         id="path907"
         style="font-style:normal;font-variant:normal;font-weight:normal;font-stretch:normal;font-size:12.69999981px;line-height:11px;font-family:'Ricty Diminished';-inkscape-font-specification:'Ricty Diminished';stroke-width:0.26458332"
         d="m 120.43582,131.61274 h 3.1877 q 0.0889,-0.7112 -0.3556,-1.2319 -0.4445,-0.5334 -1.143,-0.5334 -0.5715,0 -1.0795,0.4191 -0.4953,0.4191 -0.6096,1.3462 z m 1.7526,-2.4638 q 0.8255,0 1.4605,0.4953 0.6477,0.4826 0.8382,1.5621 0.0889,0.5969 0.0381,1.1176 h -4.1275 q 0.0254,0.6223 0.2159,1.0668 0.2032,0.4445 0.508,0.6731 0.3175,0.2159 0.6223,0.3175 0.3048,0.1016 0.635,0.1016 0.9144,0 1.4986,-0.6477 l 0.508,0.4953 q -0.7366,0.889 -2.0828,0.889 -1.2192,0 -2.0066,-0.7747 -0.7747,-0.7747 -0.7747,-2.1844 0,-1.5113 0.7747,-2.3114 0.7747,-0.8001 1.8923,-0.8001 z" />
      <path
         id="path909"
         style="font-style:normal;font-variant:normal;font-weight:normal;font-stretch:normal;font-size:12.69999981px;line-height:11px;font-family:'Ricty Diminished';-inkscape-font-specification:'Ricty Diminished';stroke-width:0.26458332"
         d="m 126.50643,129.28864 h 0.9525 l -0.0254,1.1176 q 0.2794,-0.5969 0.8509,-0.9271 0.5715,-0.3302 1.2319,-0.3302 0.9144,0 1.5494,0.635 l -0.4191,0.8763 q -0.0635,-0.0508 -0.1397,-0.1651 -0.0635,-0.1143 -0.0762,-0.127 -0.3556,-0.4318 -0.9652,-0.4318 -1.0033,0 -1.6256,0.9779 -0.4064,0.6477 -0.4064,1.3589 v 2.8321 h -0.9271 z" />
      <path
         id="path911"
         style="font-style:normal;font-variant:normal;font-weight:normal;font-stretch:normal;font-size:12.69999981px;line-height:11px;font-family:'Ricty Diminished';-inkscape-font-specification:'Ricty Diminished';stroke-width:0.26458332"
         d="m 135.95522,126.57084 q 1.1049,0 1.778,0.8001 l -0.4191,0.8382 q -0.0889,0 -0.1016,-0.1016 0,-0.1143 -0.0254,-0.1524 -0.4318,-0.6604 -1.27,-0.6604 -0.8128,0 -1.1684,0.635 -0.2159,0.3937 -0.2159,1.2573 v 0.4445 h 1.905 v 0.7239 h -1.905 v 4.7371 h -0.8763 v -4.7371 h -1.2573 v -0.7239 h 1.2573 v -0.5715 q 0,-0.9525 0.3175,-1.4732 0.3048,-0.4826 0.8255,-0.7493 0.5334,-0.2667 1.1557,-0.2667 z" />
      <path
         id="path913"
         style="font-style:normal;font-variant:normal;font-weight:normal;font-stretch:normal;font-size:12.69999981px;line-height:11px;font-family:'Ricty Diminished';-inkscape-font-specification:'Ricty Diminished';stroke-width:0.26458332"
         d="m 141.14952,129.93634 q -0.7112,0 -1.2192,0.6096 -0.508,0.5969 -0.508,1.6129 0,1.0414 0.5207,1.6764 0.5207,0.6223 1.2446,0.6223 0.6858,0 1.1811,-0.5715 0.508,-0.5842 0.508,-1.6256 0,-1.1176 -0.5207,-1.7145 -0.508,-0.6096 -1.2065,-0.6096 z m 2.6416,2.286 q 0,1.3843 -0.762,2.2098 -0.762,0.8128 -1.8415,0.8128 -1.1176,0 -1.9304,-0.8509 -0.8001,-0.8636 -0.8001,-2.159 0,-1.3208 0.8128,-2.1971 0.8128,-0.8763 1.9431,-0.8763 1.0541,0 1.8161,0.8128 0.762,0.8128 0.762,2.2479 z" />
      <path
         id="path915"
         style="font-style:normal;font-variant:normal;font-weight:normal;font-stretch:normal;font-size:12.69999981px;line-height:11px;font-family:'Ricty Diminished';-inkscape-font-specification:'Ricty Diminished';stroke-width:0.26458332"
         d="m 145.55643,129.28864 h 0.9525 l -0.0254,1.1176 q 0.2794,-0.5969 0.8509,-0.9271 0.5715,-0.3302 1.2319,-0.3302 0.9144,0 1.5494,0.635 l -0.4191,0.8763 q -0.0635,-0.0508 -0.1397,-0.1651 -0.0635,-0.1143 -0.0762,-0.127 -0.3556,-0.4318 -0.9652,-0.4318 -1.0033,0 -1.6256,0.9779 -0.4064,0.6477 -0.4064,1.3589 v 2.8321 h -0.9271 z" />
      <path
         id="path917"
         style="font-style:normal;font-variant:normal;font-weight:normal;font-stretch:normal;font-size:12.69999981px;line-height:11px;font-family:'Ricty Diminished';-inkscape-font-specification:'Ricty Diminished';stroke-width:0.26458332"
         d="m 151.13172,135.09254 v -5.8039 h 0.8382 v 0.5715 q 0.4699,-0.7112 1.1811,-0.7112 0.381,0 0.6731,0.2413 0.2921,0.2413 0.3556,0.6096 0.1778,-0.381 0.5207,-0.6096 0.3556,-0.2413 0.7747,-0.2413 0.5842,0 0.9144,0.4699 0.0381,0.0635 0.0762,0.1397 0.0381,0.0635 0.0508,0.1397 0.0254,0.0762 0.0381,0.1397 0.0254,0.0508 0.0381,0.1524 0.0127,0.1016 0.0127,0.1524 0.0127,0.0381 0.0127,0.1651 0,0.1143 0,0.1524 0,0.0254 0,0.1651 0,0.127 0,0.1524 v 4.1275 h -0.8636 v -4.1275 q 0,-0.6604 -0.0762,-0.8382 -0.127,-0.3175 -0.4572,-0.3175 -0.3556,0 -0.6731,0.5207 -0.254,0.4191 -0.254,0.9144 v 3.8354 h -0.8509 v -4.0386 q 0,-0.5969 -0.0508,-0.762 -0.1397,-0.4445 -0.5461,-0.4445 -0.3937,0 -0.6985,0.5461 -0.1778,0.3302 -0.1778,0.8255 v 3.8735 z" />
      <path
         id="path919"
         style="font-style:normal;font-variant:normal;font-weight:normal;font-stretch:normal;font-size:12.69999981px;line-height:11px;font-family:'Ricty Diminished';-inkscape-font-specification:'Ricty Diminished';stroke-width:0.26458332"
         d="m 161.68542,132.37474 h -0.2159 q -1.5367,0 -1.905,0.0889 -0.508,0.127 -0.7747,0.4318 -0.254,0.2921 -0.254,0.635 0,0.4064 0.3302,0.7112 0.3302,0.2921 0.889,0.2921 0.8763,0 1.524,-0.6858 0.4064,-0.4318 0.4064,-1.0922 z m -3.5306,-2.4003 q 0.8001,-0.8128 2.0701,-0.8128 1.4351,0 2.0193,0.9652 0.2794,0.4699 0.2794,1.3716 v 3.5941 h -0.8636 v -0.635 q -0.9398,0.7747 -2.0828,0.7747 -0.8763,0 -1.4224,-0.4826 -0.5334,-0.4826 -0.5334,-1.1557 0,-0.5207 0.3302,-0.9652 0.3429,-0.4572 1.0033,-0.6985 0.6985,-0.254 2.5019,-0.254 h 0.1905 v -0.2159 q 0,-0.6731 -0.1905,-0.9906 -0.3429,-0.5588 -1.1938,-0.5588 -1.0541,0 -1.6637,0.6477 z" />
      <path
         id="path921"
         style="font-style:normal;font-variant:normal;font-weight:normal;font-stretch:normal;font-size:12.69999981px;line-height:11px;font-family:'Ricty Diminished';-inkscape-font-specification:'Ricty Diminished';stroke-width:0.26458332"
         d="m 164.21272,135.09254 v -5.8039 h 0.9398 v 1.0287 q 0.3429,-0.5207 0.8509,-0.8382 0.508,-0.3302 1.0668,-0.3302 0.4953,0 0.9144,0.2794 0.4191,0.2667 0.635,0.7493 0.2159,0.4953 0.2159,1.397 v 3.5179 h -0.9017 v -3.4925 q 0,-0.9017 -0.3175,-1.2827 -0.2921,-0.3683 -0.7874,-0.3683 -0.4064,0 -0.8001,0.2667 -0.3937,0.254 -0.5969,0.5334 -0.2794,0.3683 -0.2794,1.0033 v 3.3401 z" />
      <path
         id="path923"
         style="font-style:normal;font-variant:normal;font-weight:normal;font-stretch:normal;font-size:12.69999981px;line-height:11px;font-family:'Ricty Diminished';-inkscape-font-specification:'Ricty Diminished';stroke-width:0.26458332"
         d="m 175.50303,130.25384 -0.6477,0.7493 q -0.0635,-0.0381 -0.0762,-0.1397 0,-0.1143 -0.0127,-0.1524 -0.0635,-0.1016 -0.1905,-0.2286 -0.1143,-0.1397 -0.4953,-0.3302 -0.3683,-0.2032 -0.8128,-0.2032 -0.8255,0 -1.3716,0.5969 -0.5461,0.5842 -0.5461,1.5494 0,1.016 0.5715,1.6637 0.5715,0.6477 1.4224,0.6477 0.9017,0 1.5367,-0.7112 l 0.5334,0.6223 q -0.8509,0.9144 -2.1463,0.9144 -1.2319,0 -2.0447,-0.8636 -0.8128,-0.8636 -0.8128,-2.1717 0,-1.3081 0.8255,-2.159 0.8255,-0.8636 2.0955,-0.8636 1.4351,0 2.1717,1.0795 z" />
      <path
         id="path925"
         style="font-style:normal;font-variant:normal;font-weight:normal;font-stretch:normal;font-size:12.69999981px;line-height:11px;font-family:'Ricty Diminished';-inkscape-font-specification:'Ricty Diminished';stroke-width:0.26458332"
         d="m 177.58583,131.61274 h 3.1877 q 0.0889,-0.7112 -0.3556,-1.2319 -0.4445,-0.5334 -1.143,-0.5334 -0.5715,0 -1.0795,0.4191 -0.4953,0.4191 -0.6096,1.3462 z m 1.7526,-2.4638 q 0.8255,0 1.4605,0.4953 0.6477,0.4826 0.8382,1.5621 0.0889,0.5969 0.0381,1.1176 h -4.1275 q 0.0254,0.6223 0.2159,1.0668 0.2032,0.4445 0.508,0.6731 0.3175,0.2159 0.6223,0.3175 0.3048,0.1016 0.635,0.1016 0.9144,0 1.4986,-0.6477 l 0.508,0.4953 q -0.7366,0.889 -2.0828,0.889 -1.2192,0 -2.0066,-0.7747 -0.7747,-0.7747 -0.7747,-2.1844 0,-1.5113 0.7747,-2.3114 0.7747,-0.8001 1.8923,-0.8001 z" />
      <path
         id="path927"
         style="font-style:normal;font-variant:normal;font-weight:normal;font-stretch:normal;font-size:12.69999981px;line-height:11px;font-family:'Ricty Diminished';-inkscape-font-specification:'Ricty Diminished';stroke-width:0.26458332"
         d="m 84.939326,143.12643 -1.1176,-3.0226 -1.016,3.0226 z m -3.9497,3.0099 2.794,-8.0645 h 0.1016 l 3.048,8.0518 h -0.9144 l -0.8763,-2.3114 h -2.5146 l -0.762,2.3241 z" />
      <path
         id="path929"
         style="font-style:normal;font-variant:normal;font-weight:normal;font-stretch:normal;font-size:12.69999981px;line-height:11px;font-family:'Ricty Diminished';-inkscape-font-specification:'Ricty Diminished';stroke-width:0.26458332"
         d="m 87.542826,138.19883 h 5.486399 v 0.8001 h -2.336799 v 7.1374 h -0.9017 v -7.1374 h -2.2479 z" />
      <path
         id="path931"
         style="font-style:normal;font-variant:normal;font-weight:normal;font-stretch:normal;font-size:12.69999981px;line-height:11px;font-family:'Ricty Diminished';-inkscape-font-specification:'Ricty Diminished';stroke-width:0.26458332"
         d="m 99.023625,139.15133 -0.5588,0.762 q -0.0635,-0.0381 -0.0635,-0.1143 0,-0.0635 -0.0381,-0.1143 -0.5461,-0.7874 -1.6002,-0.7874 -0.6477,0 -1.0414,0.3429 -0.3937,0.3302 -0.3937,0.8128 0,0.7112 0.8128,1.1811 0.1651,0.0889 1.143,0.508 0.9779,0.4191 1.3843,0.8001 0.6096,0.5842 0.6096,1.4224 0,0.8763 -0.6604,1.5875 -0.6604,0.6985 -1.9812,0.6985 -1.5367,0 -2.4765,-1.016 l 0.5207,-0.9144 q 0.0635,0.0254 0.0635,0.127 0,0.0889 0.0381,0.1397 0.6858,0.8636 1.8796,0.8636 0.8001,0 1.27,-0.4318 0.4699,-0.4445 0.4699,-1.0033 0,-0.6604 -0.6731,-1.0922 -0.2413,-0.1524 -1.1557,-0.508 -0.9017,-0.3683 -1.3081,-0.6731 -0.8509,-0.6223 -0.8509,-1.5494 0,-0.8382 0.6731,-1.4351 0.6858,-0.5969 1.7399,-0.5969 1.3589,0 2.1971,0.9906 z" />
      <path
         id="path933"
         style="font-style:normal;font-variant:normal;font-weight:normal;font-stretch:normal;font-size:12.69999981px;line-height:11px;font-family:'Ricty Diminished';-inkscape-font-specification:'Ricty Diminished';stroke-width:0.26458332"
         d="m 100.48412,138.21153 h 1.0033 q 0.0127,0.0254 0.0127,0.0635 0,0.0635 -0.0889,0.1778 -0.0508,0.0635 -0.0508,0.1651 v 4.7879 q 0,0.7493 0.1905,1.1684 0.2032,0.4445 0.6096,0.6985 0.4191,0.2413 0.9017,0.2413 0.4826,0 0.8763,-0.2413 0.4064,-0.2413 0.6223,-0.6858 0.2032,-0.4318 0.2032,-1.2192 v -5.1562 h 0.8509 v 5.1435 q 0,1.1049 -0.3175,1.6764 -0.3175,0.5969 -0.9271,0.9144 -0.6096,0.3175 -1.3208,0.3175 -0.7239,0 -1.3335,-0.3175 -0.5969,-0.3175 -0.9271,-0.9144 -0.3048,-0.5715 -0.3048,-1.6383 z" />
      <path
         id="path935"
         style="font-style:normal;font-variant:normal;font-weight:normal;font-stretch:normal;font-size:12.69999981px;line-height:11px;font-family:'Ricty Diminished';-inkscape-font-specification:'Ricty Diminished';stroke-width:0.26458332"
         d="m 106.73253,138.19883 h 1.0668 q 0.0127,0.0508 -0.0762,0.1778 -0.0381,0.0635 -0.0381,0.1524 v 3.3274 l 3.302,-3.7084 q 0.2667,0.0635 0.6604,0.0635 h 0.3302 l -2.9972,3.4163 3.2004,4.5085 -1.1303,0.0381 -2.7432,-4.0132 -0.6223,0.6858 v 3.2766 h -0.9525 z" />
      <path
         id="path937"
         style="font-style:normal;font-variant:normal;font-weight:normal;font-stretch:normal;font-size:12.69999981px;line-height:11px;font-family:'Ricty Diminished';-inkscape-font-specification:'Ricty Diminished';stroke-width:0.26458332"
         d="m 116.68933,143.12643 -1.1176,-3.0226 -1.016,3.0226 z m -3.9497,3.0099 2.794,-8.0645 h 0.1016 l 3.048,8.0518 h -0.9144 l -0.8763,-2.3114 h -2.5146 l -0.762,2.3241 z" />
      <path
         id="path939"
         style="font-style:normal;font-variant:normal;font-weight:normal;font-stretch:normal;font-size:12.69999981px;line-height:11px;font-family:'Ricty Diminished';-inkscape-font-specification:'Ricty Diminished';stroke-width:0.26458332"
         d="m 119.53412,146.12363 v -7.9121 h 0.8636 l 3.3274,5.8674 v -5.8801 h 0.9398 q 0.0127,0.0635 -0.0381,0.1651 -0.0508,0.127 -0.0508,0.1778 v 7.5946 h -0.6985 l -3.4925,-6.2357 v 6.223 z" />
      <path
         id="path941"
         style="font-style:normal;font-variant:normal;font-weight:normal;font-stretch:normal;font-size:12.69999981px;line-height:11px;font-family:'Ricty Diminished';-inkscape-font-specification:'Ricty Diminished';stroke-width:0.26458332"
         d="m 84.329726,149.17912 q 0.7874,0 1.4351,0.4318 0.6604,0.4191 0.9906,1.1303 l -0.8509,0.4191 q -0.0508,-0.0254 -0.0508,-0.127 v -0.0889 q 0,-0.0889 -0.0381,-0.1397 -0.2413,-0.4191 -0.6604,-0.6604 -0.4064,-0.254 -0.8636,-0.254 -0.8763,0 -1.4986,0.8763 -0.6096,0.8763 -0.6096,2.4003 0,1.5367 0.635,2.4511 0.635,0.9017 1.5494,0.9017 0.4699,0 0.9017,-0.254 0.4318,-0.254 0.7112,-0.7112 l 0.6604,0.4318 q -0.3683,0.6096 -0.9906,0.9525 -0.6223,0.3429 -1.3335,0.3429 -0.5334,0 -1.0287,-0.2032 -0.4953,-0.2159 -0.9525,-0.6604 -0.4572,-0.4445 -0.7366,-1.2573 -0.2794,-0.8255 -0.2794,-1.9177 0,-0.9144 0.1905,-1.6383 0.2032,-0.7239 0.508,-1.1684 0.3175,-0.4445 0.7239,-0.7366 0.4064,-0.2921 0.8001,-0.4064 0.3937,-0.1143 0.7874,-0.1143 z" />
      <path
         id="path943"
         style="font-style:normal;font-variant:normal;font-weight:normal;font-stretch:normal;font-size:12.69999981px;line-height:11px;font-family:'Ricty Diminished';-inkscape-font-specification:'Ricty Diminished';stroke-width:0.26458332"
         d="m 90.349526,151.99852 q -0.7112,0 -1.2192,0.6096 -0.508,0.5969 -0.508,1.6129 0,1.0414 0.5207,1.6764 0.5207,0.6223 1.2446,0.6223 0.6858,0 1.1811,-0.5715 0.508,-0.5842 0.508,-1.6256 0,-1.1176 -0.5207,-1.7145 -0.508,-0.6096 -1.2065,-0.6096 z m 2.641599,2.286 q 0,1.3843 -0.762,2.2098 -0.761999,0.8128 -1.841499,0.8128 -1.1176,0 -1.9304,-0.8509 -0.8001,-0.8636 -0.8001,-2.159 0,-1.3208 0.8128,-2.1971 0.8128,-0.8763 1.9431,-0.8763 1.0541,0 1.816099,0.8128 0.762,0.8128 0.762,2.2479 z" />
      <path
         id="path945"
         style="font-style:normal;font-variant:normal;font-weight:normal;font-stretch:normal;font-size:12.69999981px;line-height:11px;font-family:'Ricty Diminished';-inkscape-font-specification:'Ricty Diminished';stroke-width:0.26458332"
         d="m 93.981725,157.15472 v -5.8039 h 0.8382 v 0.5715 q 0.4699,-0.7112 1.1811,-0.7112 0.381,0 0.6731,0.2413 0.2921,0.2413 0.3556,0.6096 0.1778,-0.381 0.5207,-0.6096 0.3556,-0.2413 0.7747,-0.2413 0.5842,0 0.9144,0.4699 0.0381,0.0635 0.0762,0.1397 0.0381,0.0635 0.0508,0.1397 0.0254,0.0762 0.0381,0.1397 0.0254,0.0508 0.0381,0.1524 0.0127,0.1016 0.0127,0.1524 0.0127,0.0381 0.0127,0.1651 0,0.1143 0,0.1524 0,0.0254 0,0.1651 0,0.127 0,0.1524 v 4.1275 h -0.8636 v -4.1275 q 0,-0.6604 -0.0762,-0.8382 -0.127,-0.3175 -0.4572,-0.3175 -0.3556,0 -0.6731,0.5207 -0.254,0.4191 -0.254,0.9144 v 3.8354 h -0.8509 v -4.0386 q 0,-0.5969 -0.0508,-0.762 -0.1397,-0.4445 -0.5461,-0.4445 -0.3937,0 -0.6985,0.5461 -0.1778,0.3302 -0.1778,0.8255 v 3.8735 z" />
      <path
         id="path947"
         style="font-style:normal;font-variant:normal;font-weight:normal;font-stretch:normal;font-size:12.69999981px;line-height:11px;font-family:'Ricty Diminished';-inkscape-font-specification:'Ricty Diminished';stroke-width:0.26458332"
         d="m 103.03682,151.99852 q -0.4445,0 -0.8128,0.2413 -0.3683,0.2286 -0.5334,0.6096 -0.1524,0.3683 -0.1524,1.143 0,1.3081 0.1651,1.7018 0.1651,0.381 0.5207,0.5969 0.3683,0.2032 0.8001,0.2032 0.254,0 0.508,-0.0762 0.2667,-0.0889 0.5588,-0.2921 0.3048,-0.2032 0.4953,-0.6477 0.1905,-0.4572 0.1905,-1.1049 0,-0.7366 -0.1905,-1.2446 -0.1905,-0.5207 -0.4953,-0.7366 -0.3048,-0.2286 -0.5588,-0.3048 -0.254,-0.0889 -0.4953,-0.0889 z m -2.4257,-0.6477 h 0.9271 v 0.889 q 0.2921,-0.4699 0.7747,-0.7366 0.4953,-0.2794 1.0541,-0.2794 0.9525,0 1.651,0.762 0.7112,0.762 0.7112,2.1971 0,1.4986 -0.7366,2.3114 -0.7239,0.8128 -1.7018,0.8128 -0.5207,0 -0.9906,-0.2413 -0.4699,-0.2413 -0.7493,-0.6731 v 2.8829 h -0.9398 z" />
      <path
         id="path949"
         style="font-style:normal;font-variant:normal;font-weight:normal;font-stretch:normal;font-size:12.69999981px;line-height:11px;font-family:'Ricty Diminished';-inkscape-font-specification:'Ricty Diminished';stroke-width:0.26458332"
         d="m 106.99923,151.35082 h 0.9144 v 3.2385 q 0,0.8255 0.2159,1.2573 0.3556,0.7112 1.1049,0.7112 0.4064,0 0.762,-0.2413 0.3683,-0.2413 0.5715,-0.6223 0.2286,-0.4318 0.2286,-1.143 v -3.2004 h 0.9271 v 5.2832 q 0,0.2921 0.0635,0.5207 h -0.9652 q -0.0254,-0.1524 -0.0254,-0.4445 l 0.0127,-0.4445 q -0.2794,0.4699 -0.762,0.7493 -0.4826,0.2794 -1.0287,0.2794 -0.5715,0 -1.0668,-0.3048 -0.4826,-0.3175 -0.7366,-0.8763 -0.2286,-0.508 -0.2286,-1.524 z" />
      <path
         id="path951"
         style="font-style:normal;font-variant:normal;font-weight:normal;font-stretch:normal;font-size:12.69999981px;line-height:11px;font-family:'Ricty Diminished';-inkscape-font-specification:'Ricty Diminished';stroke-width:0.26458332"
         d="m 114.93673,149.80142 1.0033,-0.1651 q 0.0127,0.0762 0,0.1143 0,0.0381 -0.0381,0.1143 -0.0254,0.0635 -0.0381,0.1143 l -0.1524,1.3716 h 1.905 v 0.7493 h -1.905 q -0.1143,1.1176 -0.1143,2.2733 0,0.9652 0.0381,1.1176 0.0635,0.4826 0.3302,0.7112 0.2794,0.2159 0.6477,0.2159 0.5969,0 1.2954,-0.5207 l 0.2794,0.7239 q -0.9017,0.6477 -1.8542,0.6477 -0.8763,0 -1.3208,-0.6223 -0.3429,-0.4699 -0.3429,-1.5748 0,-1.3208 0.127,-2.9718 h -1.3589 l 0.0127,-0.7493 h 1.3843 z" />
      <path
         id="path953"
         style="font-style:normal;font-variant:normal;font-weight:normal;font-stretch:normal;font-size:12.69999981px;line-height:11px;font-family:'Ricty Diminished';-inkscape-font-specification:'Ricty Diminished';stroke-width:0.26458332"
         d="m 121.66772,149.01402 q 0.1905,-0.1905 0.4699,-0.1905 0.2794,0 0.4572,0.1905 0.1905,0.1905 0.1905,0.4572 0,0.2667 -0.1905,0.4699 -0.1905,0.1905 -0.4572,0.1905 -0.2794,0 -0.4699,-0.1905 -0.1905,-0.2032 -0.1905,-0.4699 0,-0.2667 0.1905,-0.4572 z m -1.4224,2.3368 h 2.3241 v 5.0673 h 1.3589 v 0.7366 h -3.7592 v -0.7366 h 1.4859 v -4.3307 h -1.4097 z" />
      <path
         id="path955"
         style="font-style:normal;font-variant:normal;font-weight:normal;font-stretch:normal;font-size:12.69999981px;line-height:11px;font-family:'Ricty Diminished';-inkscape-font-specification:'Ricty Diminished';stroke-width:0.26458332"
         d="m 126.11273,157.15472 v -5.8039 h 0.9398 v 1.0287 q 0.3429,-0.5207 0.8509,-0.8382 0.508,-0.3302 1.0668,-0.3302 0.4953,0 0.9144,0.2794 0.4191,0.2667 0.635,0.7493 0.2159,0.4953 0.2159,1.397 v 3.5179 h -0.9017 v -3.4925 q 0,-0.9017 -0.3175,-1.2827 -0.2921,-0.3683 -0.7874,-0.3683 -0.4064,0 -0.8001,0.2667 -0.3937,0.254 -0.5969,0.5334 -0.2794,0.3683 -0.2794,1.0033 v 3.3401 z" />
      <path
         id="path957"
         style="font-style:normal;font-variant:normal;font-weight:normal;font-stretch:normal;font-size:12.69999981px;line-height:11px;font-family:'Ricty Diminished';-inkscape-font-specification:'Ricty Diminished';stroke-width:0.26458332"
         d="m 133.64382,156.84992 q -0.7239,0.3937 -0.7239,0.9017 0,0.4826 0.5715,0.7112 0.4826,0.1905 1.2065,0.1905 0.8255,0 1.2954,-0.254 0.5461,-0.3048 0.5461,-0.7747 0,-0.2286 -0.1651,-0.4318 -0.1524,-0.1905 -0.5207,-0.2413 -0.0127,0 -1.2319,-0.0381 -0.5842,-0.0127 -0.9779,-0.0635 z m 0.889,-5.6896 q 0.8128,0 1.3716,0.5588 0.6985,-0.5969 1.6129,-0.5207 l 0.1143,0.7493 q -0.1143,-0.0254 -0.3429,-0.0254 -0.5207,0 -1.0033,0.2794 0.2921,0.4445 0.2921,0.9779 0,0.8001 -0.6223,1.397 -0.6223,0.5969 -1.4732,0.5969 -0.3556,0 -0.7366,-0.1397 -0.4064,0.4064 -0.4064,0.6604 0,0.2794 0.3429,0.381 0.2159,0.0635 0.8255,0.0635 0.1016,0 0.4826,0 0.381,-0.0127 0.5461,0 0.1651,0 0.4445,0.0381 0.2794,0.0381 0.4953,0.127 0.9017,0.3683 0.9017,1.2573 0,0.6858 -0.6604,1.2319 -0.6604,0.5461 -2.0066,0.5461 -1.397,0 -2.0193,-0.4064 -0.6096,-0.4064 -0.6096,-0.9652 0,-0.6858 0.9525,-1.2827 -0.4699,-0.2413 -0.4699,-0.7747 0,-0.5588 0.6604,-1.1176 -0.8636,-0.5588 -0.8636,-1.5748 0,-0.8382 0.6477,-1.4478 0.6477,-0.6096 1.524,-0.6096 z m -0.9652,1.1049 q -0.3683,0.381 -0.3683,0.9017 0,0.5207 0.3683,0.9017 0.381,0.3683 0.9144,0.3683 0.5334,0 0.9017,-0.3683 0.3683,-0.381 0.3683,-0.9017 0,-0.5334 -0.3683,-0.9017 -0.3683,-0.381 -0.9017,-0.381 -0.5334,0 -0.9144,0.381 z" />
    </g>
  </g>
</svg>
