<?xml version="1.0" encoding="utf-8" standalone="no"?>
<!DOCTYPE svg PUBLIC "-//W3C//DTD SVG 1.1//EN"
  "http://www.w3.org/Graphics/SVG/1.1/DTD/svg11.dtd">
<svg height="281.634375pt" version="1.1" viewBox="0 0 284.560938 281.634375" width="284.560938pt" xmlns="http://www.w3.org/2000/svg" xmlns:xlink="http://www.w3.org/1999/xlink">
 <metadata>
  <rdf:RDF xmlns:cc="http://creativecommons.org/ns#" xmlns:dc="http://purl.org/dc/elements/1.1/" xmlns:rdf="http://www.w3.org/1999/02/22-rdf-syntax-ns#">
   <cc:Work>
    <dc:type rdf:resource="http://purl.org/dc/dcmitype/StillImage"/>
    <dc:date>2021-08-08T11:32:24.003805</dc:date>
    <dc:format>image/svg+xml</dc:format>
    <dc:creator>
     <cc:Agent>
      <dc:title>Matplotlib v3.4.1, https://matplotlib.org/</dc:title>
     </cc:Agent>
    </dc:creator>
   </cc:Work>
  </rdf:RDF>
 </metadata>
 <defs>
  <style type="text/css">*{stroke-linecap:butt;stroke-linejoin:round;}</style>
 </defs>
 <g id="figure_1">
  <g id="patch_1">
   <path d="M 0 281.634375 
L 284.560938 281.634375 
L 284.560938 0 
L 0 0 
z
" style="fill:#ffffff;"/>
  </g>
  <g id="axes_1">
   <g id="patch_2">
    <path d="M 46.965625 244.078125 
L 270.165625 244.078125 
L 270.165625 22.318125 
L 46.965625 22.318125 
z
" style="fill:#ffffff;"/>
   </g>
   <g id="matplotlib.axis_1">
    <g id="xtick_1">
     <g id="line2d_1">
      <path clip-path="url(#p9582b1d12d)" d="M 57.11108 244.078125 
L 57.11108 22.318125 
" style="fill:none;stroke:#b0b0b0;stroke-linecap:square;stroke-width:0.8;"/>
     </g>
     <g id="line2d_2">
      <defs>
       <path d="M 0 0 
L 0 3.5 
" id="me66e6c8745" style="stroke:#000000;stroke-width:0.8;"/>
      </defs>
      <g>
       <use style="stroke:#000000;stroke-width:0.8;" x="57.11108" xlink:href="#me66e6c8745" y="244.078125"/>
      </g>
     </g>
     <g id="text_1">
      <!-- 0 -->
      <g transform="translate(53.92983 258.676562)scale(0.1 -0.1)">
       <defs>
        <path d="M 2034 4250 
Q 1547 4250 1301 3770 
Q 1056 3291 1056 2328 
Q 1056 1369 1301 889 
Q 1547 409 2034 409 
Q 2525 409 2770 889 
Q 3016 1369 3016 2328 
Q 3016 3291 2770 3770 
Q 2525 4250 2034 4250 
z
M 2034 4750 
Q 2819 4750 3233 4129 
Q 3647 3509 3647 2328 
Q 3647 1150 3233 529 
Q 2819 -91 2034 -91 
Q 1250 -91 836 529 
Q 422 1150 422 2328 
Q 422 3509 836 4129 
Q 1250 4750 2034 4750 
z
" id="DejaVuSans-30" transform="scale(0.015625)"/>
       </defs>
       <use xlink:href="#DejaVuSans-30"/>
      </g>
     </g>
    </g>
    <g id="xtick_2">
     <g id="line2d_3">
      <path clip-path="url(#p9582b1d12d)" d="M 111.093567 244.078125 
L 111.093567 22.318125 
" style="fill:none;stroke:#b0b0b0;stroke-linecap:square;stroke-width:0.8;"/>
     </g>
     <g id="line2d_4">
      <g>
       <use style="stroke:#000000;stroke-width:0.8;" x="111.093567" xlink:href="#me66e6c8745" y="244.078125"/>
      </g>
     </g>
     <g id="text_2">
      <!-- 2 -->
      <g transform="translate(107.912317 258.676562)scale(0.1 -0.1)">
       <defs>
        <path d="M 1228 531 
L 3431 531 
L 3431 0 
L 469 0 
L 469 531 
Q 828 903 1448 1529 
Q 2069 2156 2228 2338 
Q 2531 2678 2651 2914 
Q 2772 3150 2772 3378 
Q 2772 3750 2511 3984 
Q 2250 4219 1831 4219 
Q 1534 4219 1204 4116 
Q 875 4013 500 3803 
L 500 4441 
Q 881 4594 1212 4672 
Q 1544 4750 1819 4750 
Q 2544 4750 2975 4387 
Q 3406 4025 3406 3419 
Q 3406 3131 3298 2873 
Q 3191 2616 2906 2266 
Q 2828 2175 2409 1742 
Q 1991 1309 1228 531 
z
" id="DejaVuSans-32" transform="scale(0.015625)"/>
       </defs>
       <use xlink:href="#DejaVuSans-32"/>
      </g>
     </g>
    </g>
    <g id="xtick_3">
     <g id="line2d_5">
      <path clip-path="url(#p9582b1d12d)" d="M 165.076054 244.078125 
L 165.076054 22.318125 
" style="fill:none;stroke:#b0b0b0;stroke-linecap:square;stroke-width:0.8;"/>
     </g>
     <g id="line2d_6">
      <g>
       <use style="stroke:#000000;stroke-width:0.8;" x="165.076054" xlink:href="#me66e6c8745" y="244.078125"/>
      </g>
     </g>
     <g id="text_3">
      <!-- 4 -->
      <g transform="translate(161.894804 258.676562)scale(0.1 -0.1)">
       <defs>
        <path d="M 2419 4116 
L 825 1625 
L 2419 1625 
L 2419 4116 
z
M 2253 4666 
L 3047 4666 
L 3047 1625 
L 3713 1625 
L 3713 1100 
L 3047 1100 
L 3047 0 
L 2419 0 
L 2419 1100 
L 313 1100 
L 313 1709 
L 2253 4666 
z
" id="DejaVuSans-34" transform="scale(0.015625)"/>
       </defs>
       <use xlink:href="#DejaVuSans-34"/>
      </g>
     </g>
    </g>
    <g id="xtick_4">
     <g id="line2d_7">
      <path clip-path="url(#p9582b1d12d)" d="M 219.058542 244.078125 
L 219.058542 22.318125 
" style="fill:none;stroke:#b0b0b0;stroke-linecap:square;stroke-width:0.8;"/>
     </g>
     <g id="line2d_8">
      <g>
       <use style="stroke:#000000;stroke-width:0.8;" x="219.058542" xlink:href="#me66e6c8745" y="244.078125"/>
      </g>
     </g>
     <g id="text_4">
      <!-- 6 -->
      <g transform="translate(215.877292 258.676562)scale(0.1 -0.1)">
       <defs>
        <path d="M 2113 2584 
Q 1688 2584 1439 2293 
Q 1191 2003 1191 1497 
Q 1191 994 1439 701 
Q 1688 409 2113 409 
Q 2538 409 2786 701 
Q 3034 994 3034 1497 
Q 3034 2003 2786 2293 
Q 2538 2584 2113 2584 
z
M 3366 4563 
L 3366 3988 
Q 3128 4100 2886 4159 
Q 2644 4219 2406 4219 
Q 1781 4219 1451 3797 
Q 1122 3375 1075 2522 
Q 1259 2794 1537 2939 
Q 1816 3084 2150 3084 
Q 2853 3084 3261 2657 
Q 3669 2231 3669 1497 
Q 3669 778 3244 343 
Q 2819 -91 2113 -91 
Q 1303 -91 875 529 
Q 447 1150 447 2328 
Q 447 3434 972 4092 
Q 1497 4750 2381 4750 
Q 2619 4750 2861 4703 
Q 3103 4656 3366 4563 
z
" id="DejaVuSans-36" transform="scale(0.015625)"/>
       </defs>
       <use xlink:href="#DejaVuSans-36"/>
      </g>
     </g>
    </g>
    <g id="text_5">
     <!-- Clock -->
     <g transform="translate(144.98125 272.354687)scale(0.1 -0.1)">
      <defs>
       <path d="M 4122 4306 
L 4122 3641 
Q 3803 3938 3442 4084 
Q 3081 4231 2675 4231 
Q 1875 4231 1450 3742 
Q 1025 3253 1025 2328 
Q 1025 1406 1450 917 
Q 1875 428 2675 428 
Q 3081 428 3442 575 
Q 3803 722 4122 1019 
L 4122 359 
Q 3791 134 3420 21 
Q 3050 -91 2638 -91 
Q 1578 -91 968 557 
Q 359 1206 359 2328 
Q 359 3453 968 4101 
Q 1578 4750 2638 4750 
Q 3056 4750 3426 4639 
Q 3797 4528 4122 4306 
z
" id="DejaVuSans-43" transform="scale(0.015625)"/>
       <path d="M 603 4863 
L 1178 4863 
L 1178 0 
L 603 0 
L 603 4863 
z
" id="DejaVuSans-6c" transform="scale(0.015625)"/>
       <path d="M 1959 3097 
Q 1497 3097 1228 2736 
Q 959 2375 959 1747 
Q 959 1119 1226 758 
Q 1494 397 1959 397 
Q 2419 397 2687 759 
Q 2956 1122 2956 1747 
Q 2956 2369 2687 2733 
Q 2419 3097 1959 3097 
z
M 1959 3584 
Q 2709 3584 3137 3096 
Q 3566 2609 3566 1747 
Q 3566 888 3137 398 
Q 2709 -91 1959 -91 
Q 1206 -91 779 398 
Q 353 888 353 1747 
Q 353 2609 779 3096 
Q 1206 3584 1959 3584 
z
" id="DejaVuSans-6f" transform="scale(0.015625)"/>
       <path d="M 3122 3366 
L 3122 2828 
Q 2878 2963 2633 3030 
Q 2388 3097 2138 3097 
Q 1578 3097 1268 2742 
Q 959 2388 959 1747 
Q 959 1106 1268 751 
Q 1578 397 2138 397 
Q 2388 397 2633 464 
Q 2878 531 3122 666 
L 3122 134 
Q 2881 22 2623 -34 
Q 2366 -91 2075 -91 
Q 1284 -91 818 406 
Q 353 903 353 1747 
Q 353 2603 823 3093 
Q 1294 3584 2113 3584 
Q 2378 3584 2631 3529 
Q 2884 3475 3122 3366 
z
" id="DejaVuSans-63" transform="scale(0.015625)"/>
       <path d="M 581 4863 
L 1159 4863 
L 1159 1991 
L 2875 3500 
L 3609 3500 
L 1753 1863 
L 3688 0 
L 2938 0 
L 1159 1709 
L 1159 0 
L 581 0 
L 581 4863 
z
" id="DejaVuSans-6b" transform="scale(0.015625)"/>
      </defs>
      <use xlink:href="#DejaVuSans-43"/>
      <use x="69.824219" xlink:href="#DejaVuSans-6c"/>
      <use x="97.607422" xlink:href="#DejaVuSans-6f"/>
      <use x="158.789062" xlink:href="#DejaVuSans-63"/>
      <use x="213.769531" xlink:href="#DejaVuSans-6b"/>
     </g>
    </g>
    <g id="text_6">
     <!-- 1e9 -->
     <g transform="translate(251.2875 271.354687)scale(0.1 -0.1)">
      <defs>
       <path d="M 794 531 
L 1825 531 
L 1825 4091 
L 703 3866 
L 703 4441 
L 1819 4666 
L 2450 4666 
L 2450 531 
L 3481 531 
L 3481 0 
L 794 0 
L 794 531 
z
" id="DejaVuSans-31" transform="scale(0.015625)"/>
       <path d="M 3597 1894 
L 3597 1613 
L 953 1613 
Q 991 1019 1311 708 
Q 1631 397 2203 397 
Q 2534 397 2845 478 
Q 3156 559 3463 722 
L 3463 178 
Q 3153 47 2828 -22 
Q 2503 -91 2169 -91 
Q 1331 -91 842 396 
Q 353 884 353 1716 
Q 353 2575 817 3079 
Q 1281 3584 2069 3584 
Q 2775 3584 3186 3129 
Q 3597 2675 3597 1894 
z
M 3022 2063 
Q 3016 2534 2758 2815 
Q 2500 3097 2075 3097 
Q 1594 3097 1305 2825 
Q 1016 2553 972 2059 
L 3022 2063 
z
" id="DejaVuSans-65" transform="scale(0.015625)"/>
       <path d="M 703 97 
L 703 672 
Q 941 559 1184 500 
Q 1428 441 1663 441 
Q 2288 441 2617 861 
Q 2947 1281 2994 2138 
Q 2813 1869 2534 1725 
Q 2256 1581 1919 1581 
Q 1219 1581 811 2004 
Q 403 2428 403 3163 
Q 403 3881 828 4315 
Q 1253 4750 1959 4750 
Q 2769 4750 3195 4129 
Q 3622 3509 3622 2328 
Q 3622 1225 3098 567 
Q 2575 -91 1691 -91 
Q 1453 -91 1209 -44 
Q 966 3 703 97 
z
M 1959 2075 
Q 2384 2075 2632 2365 
Q 2881 2656 2881 3163 
Q 2881 3666 2632 3958 
Q 2384 4250 1959 4250 
Q 1534 4250 1286 3958 
Q 1038 3666 1038 3163 
Q 1038 2656 1286 2365 
Q 1534 2075 1959 2075 
z
" id="DejaVuSans-39" transform="scale(0.015625)"/>
      </defs>
      <use xlink:href="#DejaVuSans-31"/>
      <use x="63.623047" xlink:href="#DejaVuSans-65"/>
      <use x="125.146484" xlink:href="#DejaVuSans-39"/>
     </g>
    </g>
   </g>
   <g id="matplotlib.axis_2">
    <g id="ytick_1">
     <g id="line2d_9">
      <path clip-path="url(#p9582b1d12d)" d="M 46.965625 233.998125 
L 270.165625 233.998125 
" style="fill:none;stroke:#b0b0b0;stroke-linecap:square;stroke-width:0.8;"/>
     </g>
     <g id="line2d_10">
      <defs>
       <path d="M 0 0 
L -3.5 0 
" id="mfd12ecbd70" style="stroke:#000000;stroke-width:0.8;"/>
      </defs>
      <g>
       <use style="stroke:#000000;stroke-width:0.8;" x="46.965625" xlink:href="#mfd12ecbd70" y="233.998125"/>
      </g>
     </g>
     <g id="text_7">
      <!-- 0 -->
      <g transform="translate(33.603125 237.797344)scale(0.1 -0.1)">
       <use xlink:href="#DejaVuSans-30"/>
      </g>
     </g>
    </g>
    <g id="ytick_2">
     <g id="line2d_11">
      <path clip-path="url(#p9582b1d12d)" d="M 46.965625 191.600649 
L 270.165625 191.600649 
" style="fill:none;stroke:#b0b0b0;stroke-linecap:square;stroke-width:0.8;"/>
     </g>
     <g id="line2d_12">
      <g>
       <use style="stroke:#000000;stroke-width:0.8;" x="46.965625" xlink:href="#mfd12ecbd70" y="191.600649"/>
      </g>
     </g>
     <g id="text_8">
      <!-- 200 -->
      <g transform="translate(20.878125 195.399867)scale(0.1 -0.1)">
       <use xlink:href="#DejaVuSans-32"/>
       <use x="63.623047" xlink:href="#DejaVuSans-30"/>
       <use x="127.246094" xlink:href="#DejaVuSans-30"/>
      </g>
     </g>
    </g>
    <g id="ytick_3">
     <g id="line2d_13">
      <path clip-path="url(#p9582b1d12d)" d="M 46.965625 149.203172 
L 270.165625 149.203172 
" style="fill:none;stroke:#b0b0b0;stroke-linecap:square;stroke-width:0.8;"/>
     </g>
     <g id="line2d_14">
      <g>
       <use style="stroke:#000000;stroke-width:0.8;" x="46.965625" xlink:href="#mfd12ecbd70" y="149.203172"/>
      </g>
     </g>
     <g id="text_9">
      <!-- 400 -->
      <g transform="translate(20.878125 153.002391)scale(0.1 -0.1)">
       <use xlink:href="#DejaVuSans-34"/>
       <use x="63.623047" xlink:href="#DejaVuSans-30"/>
       <use x="127.246094" xlink:href="#DejaVuSans-30"/>
      </g>
     </g>
    </g>
    <g id="ytick_4">
     <g id="line2d_15">
      <path clip-path="url(#p9582b1d12d)" d="M 46.965625 106.805696 
L 270.165625 106.805696 
" style="fill:none;stroke:#b0b0b0;stroke-linecap:square;stroke-width:0.8;"/>
     </g>
     <g id="line2d_16">
      <g>
       <use style="stroke:#000000;stroke-width:0.8;" x="46.965625" xlink:href="#mfd12ecbd70" y="106.805696"/>
      </g>
     </g>
     <g id="text_10">
      <!-- 600 -->
      <g transform="translate(20.878125 110.604915)scale(0.1 -0.1)">
       <use xlink:href="#DejaVuSans-36"/>
       <use x="63.623047" xlink:href="#DejaVuSans-30"/>
       <use x="127.246094" xlink:href="#DejaVuSans-30"/>
      </g>
     </g>
    </g>
    <g id="ytick_5">
     <g id="line2d_17">
      <path clip-path="url(#p9582b1d12d)" d="M 46.965625 64.40822 
L 270.165625 64.40822 
" style="fill:none;stroke:#b0b0b0;stroke-linecap:square;stroke-width:0.8;"/>
     </g>
     <g id="line2d_18">
      <g>
       <use style="stroke:#000000;stroke-width:0.8;" x="46.965625" xlink:href="#mfd12ecbd70" y="64.40822"/>
      </g>
     </g>
     <g id="text_11">
      <!-- 800 -->
      <g transform="translate(20.878125 68.207438)scale(0.1 -0.1)">
       <defs>
        <path d="M 2034 2216 
Q 1584 2216 1326 1975 
Q 1069 1734 1069 1313 
Q 1069 891 1326 650 
Q 1584 409 2034 409 
Q 2484 409 2743 651 
Q 3003 894 3003 1313 
Q 3003 1734 2745 1975 
Q 2488 2216 2034 2216 
z
M 1403 2484 
Q 997 2584 770 2862 
Q 544 3141 544 3541 
Q 544 4100 942 4425 
Q 1341 4750 2034 4750 
Q 2731 4750 3128 4425 
Q 3525 4100 3525 3541 
Q 3525 3141 3298 2862 
Q 3072 2584 2669 2484 
Q 3125 2378 3379 2068 
Q 3634 1759 3634 1313 
Q 3634 634 3220 271 
Q 2806 -91 2034 -91 
Q 1263 -91 848 271 
Q 434 634 434 1313 
Q 434 1759 690 2068 
Q 947 2378 1403 2484 
z
M 1172 3481 
Q 1172 3119 1398 2916 
Q 1625 2713 2034 2713 
Q 2441 2713 2670 2916 
Q 2900 3119 2900 3481 
Q 2900 3844 2670 4047 
Q 2441 4250 2034 4250 
Q 1625 4250 1398 4047 
Q 1172 3844 1172 3481 
z
" id="DejaVuSans-38" transform="scale(0.015625)"/>
       </defs>
       <use xlink:href="#DejaVuSans-38"/>
       <use x="63.623047" xlink:href="#DejaVuSans-30"/>
       <use x="127.246094" xlink:href="#DejaVuSans-30"/>
      </g>
     </g>
    </g>
    <g id="text_12">
     <!-- BlockIdx.x -->
     <g transform="translate(14.798437 158.878594)rotate(-90)scale(0.1 -0.1)">
      <defs>
       <path d="M 1259 2228 
L 1259 519 
L 2272 519 
Q 2781 519 3026 730 
Q 3272 941 3272 1375 
Q 3272 1813 3026 2020 
Q 2781 2228 2272 2228 
L 1259 2228 
z
M 1259 4147 
L 1259 2741 
L 2194 2741 
Q 2656 2741 2882 2914 
Q 3109 3088 3109 3444 
Q 3109 3797 2882 3972 
Q 2656 4147 2194 4147 
L 1259 4147 
z
M 628 4666 
L 2241 4666 
Q 2963 4666 3353 4366 
Q 3744 4066 3744 3513 
Q 3744 3084 3544 2831 
Q 3344 2578 2956 2516 
Q 3422 2416 3680 2098 
Q 3938 1781 3938 1306 
Q 3938 681 3513 340 
Q 3088 0 2303 0 
L 628 0 
L 628 4666 
z
" id="DejaVuSans-42" transform="scale(0.015625)"/>
       <path d="M 628 4666 
L 1259 4666 
L 1259 0 
L 628 0 
L 628 4666 
z
" id="DejaVuSans-49" transform="scale(0.015625)"/>
       <path d="M 2906 2969 
L 2906 4863 
L 3481 4863 
L 3481 0 
L 2906 0 
L 2906 525 
Q 2725 213 2448 61 
Q 2172 -91 1784 -91 
Q 1150 -91 751 415 
Q 353 922 353 1747 
Q 353 2572 751 3078 
Q 1150 3584 1784 3584 
Q 2172 3584 2448 3432 
Q 2725 3281 2906 2969 
z
M 947 1747 
Q 947 1113 1208 752 
Q 1469 391 1925 391 
Q 2381 391 2643 752 
Q 2906 1113 2906 1747 
Q 2906 2381 2643 2742 
Q 2381 3103 1925 3103 
Q 1469 3103 1208 2742 
Q 947 2381 947 1747 
z
" id="DejaVuSans-64" transform="scale(0.015625)"/>
       <path d="M 3513 3500 
L 2247 1797 
L 3578 0 
L 2900 0 
L 1881 1375 
L 863 0 
L 184 0 
L 1544 1831 
L 300 3500 
L 978 3500 
L 1906 2253 
L 2834 3500 
L 3513 3500 
z
" id="DejaVuSans-78" transform="scale(0.015625)"/>
       <path d="M 684 794 
L 1344 794 
L 1344 0 
L 684 0 
L 684 794 
z
" id="DejaVuSans-2e" transform="scale(0.015625)"/>
      </defs>
      <use xlink:href="#DejaVuSans-42"/>
      <use x="68.603516" xlink:href="#DejaVuSans-6c"/>
      <use x="96.386719" xlink:href="#DejaVuSans-6f"/>
      <use x="157.568359" xlink:href="#DejaVuSans-63"/>
      <use x="212.548828" xlink:href="#DejaVuSans-6b"/>
      <use x="270.458984" xlink:href="#DejaVuSans-49"/>
      <use x="299.951172" xlink:href="#DejaVuSans-64"/>
      <use x="363.427734" xlink:href="#DejaVuSans-78"/>
      <use x="422.607422" xlink:href="#DejaVuSans-2e"/>
      <use x="454.394531" xlink:href="#DejaVuSans-78"/>
     </g>
    </g>
   </g>
   <g id="line2d_19">
    <path clip-path="url(#p9582b1d12d)" d="M 57.11108 233.998125 
L 86.092708 233.998125 
" style="fill:none;stroke:#1f77b4;stroke-linecap:square;stroke-width:1.5;"/>
    <defs>
     <path d="M 0 -6 
L -5.196152 3 
L 5.196152 3 
z
" id="m92134fe3d7" style="stroke:#1f77b4;stroke-linejoin:miter;"/>
    </defs>
    <g clip-path="url(#p9582b1d12d)">
     <use style="fill:#1f77b4;stroke:#1f77b4;stroke-linejoin:miter;" x="57.11108" xlink:href="#m92134fe3d7" y="233.998125"/>
     <use style="fill:#1f77b4;stroke:#1f77b4;stroke-linejoin:miter;" x="86.092708" xlink:href="#m92134fe3d7" y="233.998125"/>
    </g>
   </g>
   <g id="line2d_20">
    <path clip-path="url(#p9582b1d12d)" d="M 57.111107 233.786138 
L 86.092736 233.786138 
" style="fill:none;stroke:#ff7f0e;stroke-linecap:square;stroke-width:1.5;"/>
    <defs>
     <path d="M -5.706339 -1.854102 
L 1.24747 5.868886 
L 4.458869 -4.014784 
z
" id="m9c2ebe098b" style="stroke:#ff7f0e;stroke-linejoin:miter;"/>
    </defs>
    <g clip-path="url(#p9582b1d12d)">
     <use style="fill:#ff7f0e;stroke:#ff7f0e;stroke-linejoin:miter;" x="57.111107" xlink:href="#m9c2ebe098b" y="233.786138"/>
     <use style="fill:#ff7f0e;stroke:#ff7f0e;stroke-linejoin:miter;" x="86.092736" xlink:href="#m9c2ebe098b" y="233.786138"/>
    </g>
   </g>
   <g id="line2d_21">
    <path clip-path="url(#p9582b1d12d)" d="M 86.101852 189.90475 
L 115.083481 189.90475 
" style="fill:none;stroke:#2ca02c;stroke-linecap:square;stroke-width:1.5;"/>
    <defs>
     <path d="M -3.526712 4.854102 
L 5.967131 0.627171 
L -2.44042 -5.481273 
z
" id="mb7edef7cad" style="stroke:#2ca02c;stroke-linejoin:miter;"/>
    </defs>
    <g clip-path="url(#p9582b1d12d)">
     <use style="fill:#2ca02c;stroke:#2ca02c;stroke-linejoin:miter;" x="86.101852" xlink:href="#mb7edef7cad" y="189.90475"/>
     <use style="fill:#2ca02c;stroke:#2ca02c;stroke-linejoin:miter;" x="115.083481" xlink:href="#mb7edef7cad" y="189.90475"/>
    </g>
   </g>
   <g id="line2d_22">
    <path clip-path="url(#p9582b1d12d)" d="M 86.101927 177.609481 
L 115.083555 177.609481 
" style="fill:none;stroke:#d62728;stroke-linecap:square;stroke-width:1.5;"/>
    <defs>
     <path d="M 3.526712 4.854102 
L 2.44042 -5.481273 
L -5.967131 0.627171 
z
" id="mae0b21bbde" style="stroke:#d62728;stroke-linejoin:miter;"/>
    </defs>
    <g clip-path="url(#p9582b1d12d)">
     <use style="fill:#d62728;stroke:#d62728;stroke-linejoin:miter;" x="86.101927" xlink:href="#mae0b21bbde" y="177.609481"/>
     <use style="fill:#d62728;stroke:#d62728;stroke-linejoin:miter;" x="115.083555" xlink:href="#mae0b21bbde" y="177.609481"/>
    </g>
   </g>
   <g id="line2d_23">
    <path clip-path="url(#p9582b1d12d)" d="M 115.090484 167.010112 
L 144.072113 167.010112 
" style="fill:none;stroke:#9467bd;stroke-linecap:square;stroke-width:1.5;"/>
    <defs>
     <path d="M 5.706339 -1.854102 
L -4.458869 -4.014784 
L -1.24747 5.868886 
z
" id="md8843593fc" style="stroke:#9467bd;stroke-linejoin:miter;"/>
    </defs>
    <g clip-path="url(#p9582b1d12d)">
     <use style="fill:#9467bd;stroke:#9467bd;stroke-linejoin:miter;" x="115.090484" xlink:href="#md8843593fc" y="167.010112"/>
     <use style="fill:#9467bd;stroke:#9467bd;stroke-linejoin:miter;" x="144.072113" xlink:href="#md8843593fc" y="167.010112"/>
    </g>
   </g>
   <g id="line2d_24">
    <path clip-path="url(#p9582b1d12d)" d="M 115.090936 152.382983 
L 144.072564 152.382983 
" style="fill:none;stroke:#8c564b;stroke-linecap:square;stroke-width:1.5;"/>
    <defs>
     <path d="M 0 -6 
L -5.196152 3 
L 5.196152 3 
z
" id="mb79ef247f5" style="stroke:#8c564b;stroke-linejoin:miter;"/>
    </defs>
    <g clip-path="url(#p9582b1d12d)">
     <use style="fill:#8c564b;stroke:#8c564b;stroke-linejoin:miter;" x="115.090936" xlink:href="#mb79ef247f5" y="152.382983"/>
     <use style="fill:#8c564b;stroke:#8c564b;stroke-linejoin:miter;" x="144.072564" xlink:href="#mb79ef247f5" y="152.382983"/>
    </g>
   </g>
   <g id="line2d_25">
    <path clip-path="url(#p9582b1d12d)" d="M 144.078384 135.63598 
L 173.060012 135.63598 
" style="fill:none;stroke:#e377c2;stroke-linecap:square;stroke-width:1.5;"/>
    <defs>
     <path d="M -5.706339 -1.854102 
L 1.24747 5.868886 
L 4.458869 -4.014784 
z
" id="m3818b2e5a4" style="stroke:#e377c2;stroke-linejoin:miter;"/>
    </defs>
    <g clip-path="url(#p9582b1d12d)">
     <use style="fill:#e377c2;stroke:#e377c2;stroke-linejoin:miter;" x="144.078384" xlink:href="#m3818b2e5a4" y="135.63598"/>
     <use style="fill:#e377c2;stroke:#e377c2;stroke-linejoin:miter;" x="173.060012" xlink:href="#m3818b2e5a4" y="135.63598"/>
    </g>
   </g>
   <g id="line2d_26">
    <path clip-path="url(#p9582b1d12d)" d="M 144.078919 123.128724 
L 173.060549 123.128724 
" style="fill:none;stroke:#7f7f7f;stroke-linecap:square;stroke-width:1.5;"/>
    <defs>
     <path d="M -3.526712 4.854102 
L 5.967131 0.627171 
L -2.44042 -5.481273 
z
" id="m381d1f7a50" style="stroke:#7f7f7f;stroke-linejoin:miter;"/>
    </defs>
    <g clip-path="url(#p9582b1d12d)">
     <use style="fill:#7f7f7f;stroke:#7f7f7f;stroke-linejoin:miter;" x="144.078919" xlink:href="#m381d1f7a50" y="123.128724"/>
     <use style="fill:#7f7f7f;stroke:#7f7f7f;stroke-linejoin:miter;" x="173.060549" xlink:href="#m381d1f7a50" y="123.128724"/>
    </g>
   </g>
   <g id="line2d_27">
    <path clip-path="url(#p9582b1d12d)" d="M 173.065167 102.565948 
L 202.046796 102.565948 
" style="fill:none;stroke:#bcbd22;stroke-linecap:square;stroke-width:1.5;"/>
    <defs>
     <path d="M 3.526712 4.854102 
L 2.44042 -5.481273 
L -5.967131 0.627171 
z
" id="mf558cd9d30" style="stroke:#bcbd22;stroke-linejoin:miter;"/>
    </defs>
    <g clip-path="url(#p9582b1d12d)">
     <use style="fill:#bcbd22;stroke:#bcbd22;stroke-linejoin:miter;" x="173.065167" xlink:href="#mf558cd9d30" y="102.565948"/>
     <use style="fill:#bcbd22;stroke:#bcbd22;stroke-linejoin:miter;" x="202.046796" xlink:href="#mf558cd9d30" y="102.565948"/>
    </g>
   </g>
   <g id="line2d_28">
    <path clip-path="url(#p9582b1d12d)" d="M 173.065645 90.058693 
L 202.047274 90.058693 
" style="fill:none;stroke:#17becf;stroke-linecap:square;stroke-width:1.5;"/>
    <defs>
     <path d="M 5.706339 -1.854102 
L -4.458869 -4.014784 
L -1.24747 5.868886 
z
" id="m46b972169d" style="stroke:#17becf;stroke-linejoin:miter;"/>
    </defs>
    <g clip-path="url(#p9582b1d12d)">
     <use style="fill:#17becf;stroke:#17becf;stroke-linejoin:miter;" x="173.065645" xlink:href="#m46b972169d" y="90.058693"/>
     <use style="fill:#17becf;stroke:#17becf;stroke-linejoin:miter;" x="202.047274" xlink:href="#m46b972169d" y="90.058693"/>
    </g>
   </g>
   <g id="line2d_29">
    <path clip-path="url(#p9582b1d12d)" d="M 202.051986 70.343866 
L 231.033615 70.343866 
" style="fill:none;stroke:#1f77b4;stroke-linecap:square;stroke-width:1.5;"/>
    <g clip-path="url(#p9582b1d12d)">
     <use style="fill:#1f77b4;stroke:#1f77b4;stroke-linejoin:miter;" x="202.051986" xlink:href="#m92134fe3d7" y="70.343866"/>
     <use style="fill:#1f77b4;stroke:#1f77b4;stroke-linejoin:miter;" x="231.033615" xlink:href="#m92134fe3d7" y="70.343866"/>
    </g>
   </g>
   <g id="line2d_30">
    <path clip-path="url(#p9582b1d12d)" d="M 202.052177 61.228409 
L 231.033805 61.228409 
" style="fill:none;stroke:#ff7f0e;stroke-linecap:square;stroke-width:1.5;"/>
    <g clip-path="url(#p9582b1d12d)">
     <use style="fill:#ff7f0e;stroke:#ff7f0e;stroke-linejoin:miter;" x="202.052177" xlink:href="#m9c2ebe098b" y="61.228409"/>
     <use style="fill:#ff7f0e;stroke:#ff7f0e;stroke-linejoin:miter;" x="231.033805" xlink:href="#m9c2ebe098b" y="61.228409"/>
    </g>
   </g>
   <g id="line2d_31">
    <path clip-path="url(#p9582b1d12d)" d="M 231.038328 43.845444 
L 260.019957 43.845444 
" style="fill:none;stroke:#2ca02c;stroke-linecap:square;stroke-width:1.5;"/>
    <g clip-path="url(#p9582b1d12d)">
     <use style="fill:#2ca02c;stroke:#2ca02c;stroke-linejoin:miter;" x="231.038328" xlink:href="#mb7edef7cad" y="43.845444"/>
     <use style="fill:#2ca02c;stroke:#2ca02c;stroke-linejoin:miter;" x="260.019957" xlink:href="#mb7edef7cad" y="43.845444"/>
    </g>
   </g>
   <g id="line2d_32">
    <path clip-path="url(#p9582b1d12d)" d="M 231.038541 32.398125 
L 260.02017 32.398125 
" style="fill:none;stroke:#d62728;stroke-linecap:square;stroke-width:1.5;"/>
    <g clip-path="url(#p9582b1d12d)">
     <use style="fill:#d62728;stroke:#d62728;stroke-linejoin:miter;" x="231.038541" xlink:href="#mae0b21bbde" y="32.398125"/>
     <use style="fill:#d62728;stroke:#d62728;stroke-linejoin:miter;" x="260.02017" xlink:href="#mae0b21bbde" y="32.398125"/>
    </g>
   </g>
   <g id="patch_3">
    <path d="M 46.965625 244.078125 
L 46.965625 22.318125 
" style="fill:none;stroke:#000000;stroke-linecap:square;stroke-linejoin:miter;stroke-width:0.8;"/>
   </g>
   <g id="patch_4">
    <path d="M 270.165625 244.078125 
L 270.165625 22.318125 
" style="fill:none;stroke:#000000;stroke-linecap:square;stroke-linejoin:miter;stroke-width:0.8;"/>
   </g>
   <g id="patch_5">
    <path d="M 46.965625 244.078125 
L 270.165625 244.078125 
" style="fill:none;stroke:#000000;stroke-linecap:square;stroke-linejoin:miter;stroke-width:0.8;"/>
   </g>
   <g id="patch_6">
    <path d="M 46.965625 22.318125 
L 270.165625 22.318125 
" style="fill:none;stroke:#000000;stroke-linecap:square;stroke-linejoin:miter;stroke-width:0.8;"/>
   </g>
   <g id="text_13">
    <!-- On SMID=0, num thread block / SM = 2 -->
    <g transform="translate(39.770313 16.318125)scale(0.12 -0.12)">
     <defs>
      <path d="M 2522 4238 
Q 1834 4238 1429 3725 
Q 1025 3213 1025 2328 
Q 1025 1447 1429 934 
Q 1834 422 2522 422 
Q 3209 422 3611 934 
Q 4013 1447 4013 2328 
Q 4013 3213 3611 3725 
Q 3209 4238 2522 4238 
z
M 2522 4750 
Q 3503 4750 4090 4092 
Q 4678 3434 4678 2328 
Q 4678 1225 4090 567 
Q 3503 -91 2522 -91 
Q 1538 -91 948 565 
Q 359 1222 359 2328 
Q 359 3434 948 4092 
Q 1538 4750 2522 4750 
z
" id="DejaVuSans-4f" transform="scale(0.015625)"/>
      <path d="M 3513 2113 
L 3513 0 
L 2938 0 
L 2938 2094 
Q 2938 2591 2744 2837 
Q 2550 3084 2163 3084 
Q 1697 3084 1428 2787 
Q 1159 2491 1159 1978 
L 1159 0 
L 581 0 
L 581 3500 
L 1159 3500 
L 1159 2956 
Q 1366 3272 1645 3428 
Q 1925 3584 2291 3584 
Q 2894 3584 3203 3211 
Q 3513 2838 3513 2113 
z
" id="DejaVuSans-6e" transform="scale(0.015625)"/>
      <path id="DejaVuSans-20" transform="scale(0.015625)"/>
      <path d="M 3425 4513 
L 3425 3897 
Q 3066 4069 2747 4153 
Q 2428 4238 2131 4238 
Q 1616 4238 1336 4038 
Q 1056 3838 1056 3469 
Q 1056 3159 1242 3001 
Q 1428 2844 1947 2747 
L 2328 2669 
Q 3034 2534 3370 2195 
Q 3706 1856 3706 1288 
Q 3706 609 3251 259 
Q 2797 -91 1919 -91 
Q 1588 -91 1214 -16 
Q 841 59 441 206 
L 441 856 
Q 825 641 1194 531 
Q 1563 422 1919 422 
Q 2459 422 2753 634 
Q 3047 847 3047 1241 
Q 3047 1584 2836 1778 
Q 2625 1972 2144 2069 
L 1759 2144 
Q 1053 2284 737 2584 
Q 422 2884 422 3419 
Q 422 4038 858 4394 
Q 1294 4750 2059 4750 
Q 2388 4750 2728 4690 
Q 3069 4631 3425 4513 
z
" id="DejaVuSans-53" transform="scale(0.015625)"/>
      <path d="M 628 4666 
L 1569 4666 
L 2759 1491 
L 3956 4666 
L 4897 4666 
L 4897 0 
L 4281 0 
L 4281 4097 
L 3078 897 
L 2444 897 
L 1241 4097 
L 1241 0 
L 628 0 
L 628 4666 
z
" id="DejaVuSans-4d" transform="scale(0.015625)"/>
      <path d="M 1259 4147 
L 1259 519 
L 2022 519 
Q 2988 519 3436 956 
Q 3884 1394 3884 2338 
Q 3884 3275 3436 3711 
Q 2988 4147 2022 4147 
L 1259 4147 
z
M 628 4666 
L 1925 4666 
Q 3281 4666 3915 4102 
Q 4550 3538 4550 2338 
Q 4550 1131 3912 565 
Q 3275 0 1925 0 
L 628 0 
L 628 4666 
z
" id="DejaVuSans-44" transform="scale(0.015625)"/>
      <path d="M 678 2906 
L 4684 2906 
L 4684 2381 
L 678 2381 
L 678 2906 
z
M 678 1631 
L 4684 1631 
L 4684 1100 
L 678 1100 
L 678 1631 
z
" id="DejaVuSans-3d" transform="scale(0.015625)"/>
      <path d="M 750 794 
L 1409 794 
L 1409 256 
L 897 -744 
L 494 -744 
L 750 256 
L 750 794 
z
" id="DejaVuSans-2c" transform="scale(0.015625)"/>
      <path d="M 544 1381 
L 544 3500 
L 1119 3500 
L 1119 1403 
Q 1119 906 1312 657 
Q 1506 409 1894 409 
Q 2359 409 2629 706 
Q 2900 1003 2900 1516 
L 2900 3500 
L 3475 3500 
L 3475 0 
L 2900 0 
L 2900 538 
Q 2691 219 2414 64 
Q 2138 -91 1772 -91 
Q 1169 -91 856 284 
Q 544 659 544 1381 
z
M 1991 3584 
L 1991 3584 
z
" id="DejaVuSans-75" transform="scale(0.015625)"/>
      <path d="M 3328 2828 
Q 3544 3216 3844 3400 
Q 4144 3584 4550 3584 
Q 5097 3584 5394 3201 
Q 5691 2819 5691 2113 
L 5691 0 
L 5113 0 
L 5113 2094 
Q 5113 2597 4934 2840 
Q 4756 3084 4391 3084 
Q 3944 3084 3684 2787 
Q 3425 2491 3425 1978 
L 3425 0 
L 2847 0 
L 2847 2094 
Q 2847 2600 2669 2842 
Q 2491 3084 2119 3084 
Q 1678 3084 1418 2786 
Q 1159 2488 1159 1978 
L 1159 0 
L 581 0 
L 581 3500 
L 1159 3500 
L 1159 2956 
Q 1356 3278 1631 3431 
Q 1906 3584 2284 3584 
Q 2666 3584 2933 3390 
Q 3200 3197 3328 2828 
z
" id="DejaVuSans-6d" transform="scale(0.015625)"/>
      <path d="M 1172 4494 
L 1172 3500 
L 2356 3500 
L 2356 3053 
L 1172 3053 
L 1172 1153 
Q 1172 725 1289 603 
Q 1406 481 1766 481 
L 2356 481 
L 2356 0 
L 1766 0 
Q 1100 0 847 248 
Q 594 497 594 1153 
L 594 3053 
L 172 3053 
L 172 3500 
L 594 3500 
L 594 4494 
L 1172 4494 
z
" id="DejaVuSans-74" transform="scale(0.015625)"/>
      <path d="M 3513 2113 
L 3513 0 
L 2938 0 
L 2938 2094 
Q 2938 2591 2744 2837 
Q 2550 3084 2163 3084 
Q 1697 3084 1428 2787 
Q 1159 2491 1159 1978 
L 1159 0 
L 581 0 
L 581 4863 
L 1159 4863 
L 1159 2956 
Q 1366 3272 1645 3428 
Q 1925 3584 2291 3584 
Q 2894 3584 3203 3211 
Q 3513 2838 3513 2113 
z
" id="DejaVuSans-68" transform="scale(0.015625)"/>
      <path d="M 2631 2963 
Q 2534 3019 2420 3045 
Q 2306 3072 2169 3072 
Q 1681 3072 1420 2755 
Q 1159 2438 1159 1844 
L 1159 0 
L 581 0 
L 581 3500 
L 1159 3500 
L 1159 2956 
Q 1341 3275 1631 3429 
Q 1922 3584 2338 3584 
Q 2397 3584 2469 3576 
Q 2541 3569 2628 3553 
L 2631 2963 
z
" id="DejaVuSans-72" transform="scale(0.015625)"/>
      <path d="M 2194 1759 
Q 1497 1759 1228 1600 
Q 959 1441 959 1056 
Q 959 750 1161 570 
Q 1363 391 1709 391 
Q 2188 391 2477 730 
Q 2766 1069 2766 1631 
L 2766 1759 
L 2194 1759 
z
M 3341 1997 
L 3341 0 
L 2766 0 
L 2766 531 
Q 2569 213 2275 61 
Q 1981 -91 1556 -91 
Q 1019 -91 701 211 
Q 384 513 384 1019 
Q 384 1609 779 1909 
Q 1175 2209 1959 2209 
L 2766 2209 
L 2766 2266 
Q 2766 2663 2505 2880 
Q 2244 3097 1772 3097 
Q 1472 3097 1187 3025 
Q 903 2953 641 2809 
L 641 3341 
Q 956 3463 1253 3523 
Q 1550 3584 1831 3584 
Q 2591 3584 2966 3190 
Q 3341 2797 3341 1997 
z
" id="DejaVuSans-61" transform="scale(0.015625)"/>
      <path d="M 3116 1747 
Q 3116 2381 2855 2742 
Q 2594 3103 2138 3103 
Q 1681 3103 1420 2742 
Q 1159 2381 1159 1747 
Q 1159 1113 1420 752 
Q 1681 391 2138 391 
Q 2594 391 2855 752 
Q 3116 1113 3116 1747 
z
M 1159 2969 
Q 1341 3281 1617 3432 
Q 1894 3584 2278 3584 
Q 2916 3584 3314 3078 
Q 3713 2572 3713 1747 
Q 3713 922 3314 415 
Q 2916 -91 2278 -91 
Q 1894 -91 1617 61 
Q 1341 213 1159 525 
L 1159 0 
L 581 0 
L 581 4863 
L 1159 4863 
L 1159 2969 
z
" id="DejaVuSans-62" transform="scale(0.015625)"/>
      <path d="M 1625 4666 
L 2156 4666 
L 531 -594 
L 0 -594 
L 1625 4666 
z
" id="DejaVuSans-2f" transform="scale(0.015625)"/>
     </defs>
     <use xlink:href="#DejaVuSans-4f"/>
     <use x="78.710938" xlink:href="#DejaVuSans-6e"/>
     <use x="142.089844" xlink:href="#DejaVuSans-20"/>
     <use x="173.876953" xlink:href="#DejaVuSans-53"/>
     <use x="237.353516" xlink:href="#DejaVuSans-4d"/>
     <use x="323.632812" xlink:href="#DejaVuSans-49"/>
     <use x="353.125" xlink:href="#DejaVuSans-44"/>
     <use x="430.126953" xlink:href="#DejaVuSans-3d"/>
     <use x="513.916016" xlink:href="#DejaVuSans-30"/>
     <use x="577.539062" xlink:href="#DejaVuSans-2c"/>
     <use x="609.326172" xlink:href="#DejaVuSans-20"/>
     <use x="641.113281" xlink:href="#DejaVuSans-6e"/>
     <use x="704.492188" xlink:href="#DejaVuSans-75"/>
     <use x="767.871094" xlink:href="#DejaVuSans-6d"/>
     <use x="865.283203" xlink:href="#DejaVuSans-20"/>
     <use x="897.070312" xlink:href="#DejaVuSans-74"/>
     <use x="936.279297" xlink:href="#DejaVuSans-68"/>
     <use x="999.658203" xlink:href="#DejaVuSans-72"/>
     <use x="1038.521484" xlink:href="#DejaVuSans-65"/>
     <use x="1100.044922" xlink:href="#DejaVuSans-61"/>
     <use x="1161.324219" xlink:href="#DejaVuSans-64"/>
     <use x="1224.800781" xlink:href="#DejaVuSans-20"/>
     <use x="1256.587891" xlink:href="#DejaVuSans-62"/>
     <use x="1320.064453" xlink:href="#DejaVuSans-6c"/>
     <use x="1347.847656" xlink:href="#DejaVuSans-6f"/>
     <use x="1409.029297" xlink:href="#DejaVuSans-63"/>
     <use x="1464.009766" xlink:href="#DejaVuSans-6b"/>
     <use x="1521.919922" xlink:href="#DejaVuSans-20"/>
     <use x="1553.707031" xlink:href="#DejaVuSans-2f"/>
     <use x="1587.398438" xlink:href="#DejaVuSans-20"/>
     <use x="1619.185547" xlink:href="#DejaVuSans-53"/>
     <use x="1682.662109" xlink:href="#DejaVuSans-4d"/>
     <use x="1768.941406" xlink:href="#DejaVuSans-20"/>
     <use x="1800.728516" xlink:href="#DejaVuSans-3d"/>
     <use x="1884.517578" xlink:href="#DejaVuSans-20"/>
     <use x="1916.304688" xlink:href="#DejaVuSans-32"/>
    </g>
   </g>
  </g>
 </g>
 <defs>
  <clipPath id="p9582b1d12d">
   <rect height="221.76" width="223.2" x="46.965625" y="22.318125"/>
  </clipPath>
 </defs>
</svg>
